<?xml version="1.0" encoding="UTF-8" standalone="no"?>
<svg
   xmlns:dc="http://purl.org/dc/elements/1.1/"
   xmlns:cc="http://creativecommons.org/ns#"
   xmlns:rdf="http://www.w3.org/1999/02/22-rdf-syntax-ns#"
   xmlns:svg="http://www.w3.org/2000/svg"
   xmlns="http://www.w3.org/2000/svg"
   xmlns:sodipodi="http://sodipodi.sourceforge.net/DTD/sodipodi-0.dtd"
   xmlns:inkscape="http://www.inkscape.org/namespaces/inkscape"
   width="144.90759"
   height="98.411835"
   viewBox="0 0 144.9076 98.411834"
   version="1.1"
   id="svg4135"
   sodipodi:docname="logo.svg"
   style="fill:none"
   inkscape:version="0.92.5 (2060ec1f9f, 2020-04-08)">
  <metadata
     id="metadata4141">
    <rdf:RDF>
      <cc:Work
         rdf:about="">
        <dc:format>image/svg+xml</dc:format>
        <dc:type
           rdf:resource="http://purl.org/dc/dcmitype/StillImage" />
        <dc:title></dc:title>
      </cc:Work>
    </rdf:RDF>
  </metadata>
  <defs
     id="defs4139" />
  <sodipodi:namedview
     pagecolor="#ffffff"
     bordercolor="#666666"
     borderopacity="1"
     objecttolerance="10"
     gridtolerance="10"
     guidetolerance="10"
     inkscape:pageopacity="0"
     inkscape:pageshadow="2"
     inkscape:window-width="1588"
     inkscape:window-height="853"
     id="namedview4137"
     showgrid="false"
     fit-margin-top="0"
     fit-margin-left="0"
     fit-margin-right="0"
     fit-margin-bottom="0"
     inkscape:zoom="2.6838145"
     inkscape:cx="-34.852588"
     inkscape:cy="43.221589"
     inkscape:window-x="1528"
     inkscape:window-y="284"
     inkscape:window-maximized="0"
     inkscape:current-layer="g5316" />
  <g
     id="g5316"
     transform="matrix(0.07498909,0,0,0.07498909,-9.4077293,79.177131)">
    <path
       style="fill:#637465;fill-opacity:1;stroke-width:0.93796569"
       d="m 544.12414,256.13681 c -1.29181,-0.17434 -3.41624,-0.45922 -4.72092,-0.63324 -1.30466,-0.17413 -3.55068,-1.01681 -4.99113,-1.87293 -2.32465,-1.38148 -2.6173,-2.28981 -2.60398,-8.08224 0.006,-3.58911 1.03287,-12.76232 2.27694,-20.3848 3.78666,-23.20151 4.64854,-36.72999 5.32164,-83.529 0.35557,-24.72157 1.14021,-51.016343 1.74363,-58.432817 1.65242,-20.308632 1.42345,-70.028902 -0.38119,-82.77984717 -1.50146,-10.60877783 -1.70853,-11.13369783 -8.86479,-22.47416783 -8.62892,-13.6741 -21.93476,-28.60571 -24.97591,-28.02745 -2.72102,0.51727 -16.43912,-1.09427 -18.5877,-2.18367 -3.0767,-1.56 -9.46295,-7.1664 -11.22157,-9.85132 -0.93318,-1.42471 -1.69672,-4.52832 -1.69672,-6.89687 0,-2.36862 -0.75288,-5.66634 -1.67307,-7.32822 -1.05343,-1.90252 -2.13741,-9.11875 -2.92677,-19.48406 l -1.25368,-16.462398 -3.56078,-3.16286 c -4.88151,-4.33602 -6.56501,-10.31707 -4.29458,-15.25765 1.56455,-3.4046 1.50979,-4.09463 -0.69016,-8.69217 -2.02335,-4.22845 -2.20592,-5.63645 -1.19118,-9.18602 0.65914,-2.30562 0.96661,-6.04615 0.68328,-8.31229 -0.38626,-3.08931 0.0494,-4.8094 1.74037,-6.87425 1.38253,-1.68812 1.87408,-3.13792 1.26992,-3.7457 -0.54209,-0.54544 -0.99375,-2.31363 -1.00362,-3.92931 -0.009,-1.64181 -0.85702,-3.52896 -1.92015,-4.27833 -3.81165,-2.68671 -3.28804,-23.72665 0.64391,-25.8742 2.4084,-1.31542 1.68989,-4.60496 -3.64314,-16.67914 -3.42678,-7.75837 -3.43598,-7.83209 -1.21313,-9.73879 3.68862,-3.16406 6.58586,-2.85175 12.97435,1.39856 5.55033,3.69273 10.01984,5.48429 5.26724,2.11137 -3.89945,-2.76747 -9.7783,-9.97193 -9.7783,-11.98323 0,-1.0311 -0.7927,-3.30796 -1.76157,-5.05968 -0.96885,-1.7517 -1.76157,-4.28005 -1.76157,-5.61854 0,-1.33848 -0.79269,-3.86683 -1.7616,-5.61854 -1.1652,-2.10673 -1.76157,-6.03544 -1.76157,-11.60484 0,-7.07358 0.34972,-8.70551 2.18721,-10.20641 1.20298,-0.98264 2.55879,-2.5431 3.01293,-3.46776 2.14102,-4.35924 9.45351,-5.31028 14.9591,-1.94559 2.44662,1.4952 3.39368,1.7287 3.79889,0.93642 0.60312,-1.17929 2.93685,-12.94646 3.89686,-19.64879 0.41291,-2.88275 1.27112,-4.61739 2.53312,-5.12014 1.40653,-0.56035 1.80155,-1.61941 1.50155,-4.02572 -0.53214,-4.26814 1.56417,-8.25147 6.31652,-12.00248 2.11411,-1.66863 4.6333,-4.23907 5.59812,-5.71211 0.96485,-1.47303 3.77527,-3.64748 6.24534,-4.83209 4.37523,-2.09818 13.51293,-7.74819 16.72913,-10.34389 1.31449,-1.06092 2.67757,-1.19846 7.63352,-0.77042 7.56026,0.65295 11.54075,1.9316 13.57998,4.36217 0.95799,1.14183 2.81172,1.98754 4.656,2.1241 2.80428,0.2076 3.09406,0.55302 3.41444,4.06986 l 0.35007,3.84301 4.68601,0.47795 c 2.57732,0.26286 4.99571,0.99282 5.37422,1.62203 0.57391,0.95403 0.96757,0.88959 2.37043,-0.38798 2.14603,-1.95451 5.51201,-1.94386 10.52677,0.0329 4.94867,1.95098 6.28931,3.51391 6.28931,7.33235 0,1.75253 1.08111,4.17188 2.59642,5.81009 1.74656,1.88828 2.65053,4.17053 2.76176,6.97238 0.18968,4.77884 1.21204,6.65033 6.2175,11.38138 4.03087,3.80996 5.96062,8.2143 6.02877,13.75973 0.0636,5.18367 2.03708,7.3716 7.12451,7.89907 6.65774,0.69034 7.34874,1.23877 6.60536,5.2424 l -0.66368,3.57467 5.34702,-0.1176 c 4.54641,-0.1 5.7071,0.18549 7.75208,1.90633 2.66416,2.24187 3.1689,7.58128 0.965,10.20821 -2.25268,2.68499 -1.59836,12.43676 1.02473,15.27277 1.2689,1.3719 2.65279,4.50944 3.07534,6.97239 0.42251,2.46286 1.41189,4.81509 2.19863,5.22711 1.97401,1.0339 4.16282,3.77762 4.16282,5.21828 0,0.65804 2.37811,3.4578 5.28473,6.22159 6.50804,6.18842 6.78519,8.88173 1.72011,16.71697 -3.86906,5.9851 -6.82931,8.44309 -12.2896,10.20432 -1.93776,0.625 -5.10861,2.09271 -7.04634,3.26152 -1.93774,1.16889 -5.92241,2.80111 -8.85479,3.62726 -3.74871,1.05613 -6.10226,2.37671 -7.92714,4.44793 -1.42752,1.62025 -2.59545,3.15275 -2.59545,3.40574 0,0.2529 1.73206,0.45982 3.84902,0.45982 4.13162,0 7.48219,-1.17562 13.36975,-4.69103 4.4023,-2.62858 15.48822,-4.589 19.89987,-3.51908 2.34717,0.56927 2.81829,1.20964 2.85756,3.88398 l 0.047,3.20242 1.74425,-2.05061 c 0.95931,-1.12783 3.10782,-2.26892 4.77445,-2.53576 3.45114,-0.55249 10.95195,1.40074 11.0929,2.88867 0.0495,0.52171 0.37001,1.6228 0.71244,2.44684 1.91132,4.59994 1.71189,7.93795 -0.62528,10.46488 -1.3243,1.43175 -1.97213,2.77488 -1.43963,2.98486 2.23291,0.88032 2.1536,8.99266 -0.1262,12.92204 -1.48607,2.56116 -2.00877,4.75688 -1.52443,6.40372 0.58141,1.9769 0.0547,3.17088 -2.49377,5.6539 -1.77693,1.73134 -3.79754,3.15298 -4.49019,3.15927 -3.1478,0.0284 -4.58795,1.74782 -6.52201,7.78551 -1.14285,3.56769 -2.95464,7.10475 -4.02621,7.86004 -1.56773,1.10504 -2.07565,3.62433 -2.60025,12.89762 -0.74209,13.116898 -1.58273,15.539378 -6.39847,18.438768 -3.99623,2.40608 -4.4962,5.59323 -1.67701,10.69029 4.0279,7.28245 1.85807,11.17738 -11.47786,20.60334 -4.99585,3.53114 -6.49891,5.18037 -7.02224,7.70519 -1.06651,5.14561 -3.51413,6.90099 -9.62219,6.90099 -3.83368,0 -6.09169,-0.496 -8.74772,-1.92161 l -3.5801,-1.92169 -4.04087,2.05675 -4.04089,2.05677 -0.9834,8.66731 c -1.306,11.51022 -0.87867,56.001198 0.82435,85.828536 1.09684,19.210843 1.05322,28.957281 -0.21938,49.068596 -1.89585,29.95671 -1.81487,54.98934 0.20739,64.13281 0.90875,4.10865 1.40442,13.69334 1.29367,25.01473 -0.15677,16.01193 0.12917,19.26199 2.24023,25.47071 2.4599,7.23465 4.95296,15.77102 6.29432,21.55205 0.67933,2.92779 0.4924,3.25868 -2.21135,3.91439 -1.6244,0.39398 -2.95344,1.10303 -2.95344,1.57575 0,0.63804 -0.42687,0.63339 -1.65703,-0.017 -1.13278,-0.59969 -1.89784,-0.62876 -2.4181,-0.0917 -0.41859,0.43201 -2.33635,0.78553 -4.26172,0.78553 -1.92534,0 -5.5724,0.67423 -8.10458,1.49827 -2.53223,0.82406 -5.55411,1.49828 -6.71531,1.49828 -1.16123,0 -4.59316,0.84278 -7.62651,1.87285 -5.19054,1.76258 -8.94497,2.12224 -14.43072,1.38223 z m 111.47083,-420.98014 c 1.91388,-0.46852 2.56526,-2.92359 0.94517,-3.56231 -0.50187,-0.19784 -1.79846,0.62509 -2.88134,1.82865 -1.9722,2.19205 -1.53516,2.5834 1.93617,1.73366 z M 495.38706,-213.4572 c 1.61479,-0.58882 5.19856,-1.08258 7.96398,-1.09719 5.84827,-0.0307 7.5522,-1.52711 4.3275,-3.80008 -1.61095,-1.13554 -3.6201,-1.47041 -8.82208,-1.47041 -4.20281,0 -8.66135,-0.55728 -11.85547,-1.48179 -2.81568,-0.81507 -6.17636,-1.48187 -7.46816,-1.48187 -1.48269,0 -0.60777,0.50454 2.37267,1.36823 4.9009,1.42014 7.60962,4.00054 7.60962,7.24925 0,2.07669 1.60092,2.27132 5.87194,0.71386 z m -145.7832,391.82298 c -0.39464,-0.2517 -5.93717,-0.61241 -12.31673,-0.80142 -20.52039,-0.60808 -24.38039,-0.86497 -32.02582,-2.1313 -4.12958,-0.68404 -8.41491,-1.06012 -9.5229,-0.83583 -1.10798,0.22437 -2.60498,-0.0456 -3.32668,-0.60073 -1.43711,-1.10452 -3.67255,-22.29939 -3.69992,-35.07976 -0.0171,-7.23213 -0.24134,-8.05692 -2.46525,-8.99881 -6.24098,-2.64335 -7.17356,-26.02254 -2.11748,-53.083829 0.65439,-3.502224 1.19071,-7.71613 1.19187,-9.364235 0.001,-1.648105 1.01123,-8.2218 2.24458,-14.608208 2.84931,-14.754516 4.24639,-26.54214 5.81564,-49.0685952 0.68886,-9.888633 2.0093,-26.4071448 2.93428,-36.7078048 1.93907,-21.5931 2.46106,-53.99695 1.22021,-75.744368 -0.85524,-14.98893 0.17751,-31.19857 4.69526,-73.70883 2.76764,-26.04126 4.16957,-75.97226 2.90017,-103.29224 -1.63309,-35.14749 -2.18581,-37.86746 -11.45937,-56.3927 l -7.74697,-15.47574 -3.87583,0.40121 c -6.03635,0.62485 -9.28076,-2.31301 -25.12886,-22.75465 -13.93739,-17.97707 -14.30467,-18.35574 -17.33334,-17.87086 -14.37824,2.30199 -27.21929,1.95462 -43.05042,-1.16452 -9.23729,-1.81999 -12.87776,-4.02909 -18.59646,-11.28458 -4.74797,-6.02393 -6.68388,-11.21848 -6.68388,-17.93461 0,-4.62016 -3.49052,-11.55411 -10.72197,-21.2993 l -3.89128,-5.244 -1.53492,-20.60131 c -1.219,-16.36088 -1.243,-22.60589 -0.11695,-30.34012 0.78005,-5.35635 1.31616,-11.08725 1.1914,-12.73535 -0.25502,-3.36976 -4.8604,-9.46115 -12.61422,-16.68478 -7.25577,-6.75963 -9.3242,-11.50237 -9.22263,-21.14674 0.0767,-7.25843 0.41886,-8.40274 4.43341,-14.81585 3.89482,-6.22195 4.28022,-7.43822 3.67923,-11.61167 -0.36922,-2.56397 -1.14389,-9.54987 -1.72157,-15.52424 -0.76808,-7.94367 -1.70008,-11.92151 -3.4685,-14.80355 -1.72064,-2.80417 -2.4182,-5.65938 -2.4182,-9.89797 0,-7.97693 2.85393,-12.69882 11.25403,-18.62006 3.80149,-2.67968 6.17499,-4.9592 5.6875,-5.46237 -2.21757,-2.28882 -12.60787,-10.98696 -15.10556,-12.64545 -5.98783,-3.97601 -7.18642,-13.46042 -2.42316,-19.17497 1.61479,-1.93729 2.93594,-4.1854 2.93594,-4.99579 0,-0.81039 0.77962,-3.03568 1.73247,-4.94512 3.78155,-7.57794 4.73016,-12.41864 4.05674,-20.70186 -0.83592,-10.28182 -4.82938,-25.38988 -9.3068,-35.20952 -1.8787,-4.12027 -3.76909,-8.67128 -4.20089,-10.11337 -0.4318,-1.4421 -1.51418,-3.5323 -2.40525,-4.64492 -0.89106,-1.11263 -1.62014,-3.35166 -1.62014,-4.97567 0,-2.45345 0.912,-3.59978 5.3936,-6.77945 2.96645,-2.10469 6.31644,-3.8267 7.44438,-3.8267 4.00389,0 15.28916,6.09883 23.84685,12.88744 3.58981,2.84772 5.61517,3.70914 11.12132,4.73023 17.01083,3.15452 22.92831,7.36496 24.58817,17.49506 l 0.71913,4.3889 3.66606,-0.78303 c 2.01632,-0.43066 6.28008,-1.56494 9.475,-2.52062 4.57862,-1.36959 7.82456,-1.73759 15.32576,-1.73759 5.83612,0 10.06189,-0.34769 10.92612,-0.89899 3.14476,-2.00605 0.96444,-6.73391 -4.2494,-9.21439 -2.63649,-1.25434 -5.63504,-1.56623 -18.4163,-1.91551 -14.41853,-0.39403 -15.69129,-0.5574 -22.90056,-2.9397 -4.19842,-1.38735 -10.39136,-2.77037 -13.76209,-3.07336 -8.42689,-0.75749 -12.17781,-2.72299 -17.34756,-9.09027 -2.43615,-3.00044 -6.12884,-7.1409 -8.20606,-9.20104 -4.8146,-4.77504 -6.48543,-7.95454 -6.48543,-12.34135 0,-1.92648 -1.3584,-6.0058 -3.0187,-9.06517 -1.96787,-3.6262 -3.35615,-8.30055 -3.98824,-13.42842 -0.61206,-4.96576 -1.88056,-9.31905 -3.44045,-11.80699 -1.92112,-3.06418 -2.46991,-5.56427 -2.46657,-11.23709 0.003,-6.31794 0.47064,-8.04926 3.48274,-12.91459 2.73128,-4.41169 3.48909,-6.8254 3.528,-11.23707 0.0556,-6.30308 3.34133,-16.14239 6.37761,-19.09836 3.54141,-3.44778 8.75076,-4.99322 15.72217,-4.6643 8.08003,0.38123 11.68531,2.11987 16.28242,7.85224 3.19177,3.97996 3.91574,4.46097 5.21328,3.46365 0.90074,-0.69234 1.85943,-4.67414 2.38368,-9.90032 0.85346,-8.50825 2.73538,-18.206 6.20318,-31.96546 2.68255,-10.6437 7.54369,-16.1065 14.3325,-16.1065 2.00764,0 2.71728,-0.5893 3.36606,-2.7955 0.45217,-1.5375 1.41648,-3.4759 2.14286,-4.3075 0.72642,-0.8317 1.36384,-5.0518 1.4165,-9.3781 0.1505,-12.3579 1.70485,-25.4562 3.56901,-30.0751 1.11054,-2.7516 1.83519,-9.1657 2.07358,-18.3538 0.23301,-8.97514 0.86498,-14.67044 1.73402,-15.62254 0.75219,-0.824 1.93876,-2.9551 2.63685,-4.7357 0.86108,-2.1962 3.30386,-4.6492 7.59521,-7.6268 8.21965,-5.7034 11.28503,-9.6664 12.37464,-15.9983 1.31736,-7.6553 2.78732,-8.3423 17.89859,-8.365 13.03942,-0.019 14.54351,-0.3456 24.06932,-5.2192 6.50476,-3.328 11.30726,-4.1202 24.92605,-4.1117 17.0172,0.011 29.39806,2.2392 36.80451,6.6252 4.73389,2.8034 6.07461,4.7669 8.85959,12.9756 2.91839,8.6018 6.65556,15.3889 9.62257,17.4756 1.17898,0.8292 3.28136,3.189 4.67194,5.244 1.39059,2.055 3.78618,5.4219 5.32351,7.482 1.53733,2.0602 3.12717,4.9256 3.53292,6.36774 0.4058,1.4421 1.48389,4.0905 2.39578,5.8853 1.81242,3.5673 2.66074,8.8456 2.73049,16.9892 0.0433,5.0629 0.1851,5.3225 3.6131,6.6142 1.96236,0.7395 4.97185,2.6977 6.68773,4.3517 2.86359,2.7603 3.14652,3.7244 3.44516,11.7397 0.26998,7.2428 0.6625,8.8603 2.30144,9.4816 4.25672,1.6138 10.03887,5.1963 11.70594,7.2527 0.96342,1.1884 2.20775,4.2567 2.7652,6.8183 0.55741,2.5616 1.83286,6.0059 2.83431,7.654 2.12299,3.4939 2.44103,9.3848 0.70807,13.1149 -2.33123,5.01805 -1.67005,7.85019 2.97031,12.72299 2.40779,2.52837 5.34953,6.64444 6.53728,9.14677 1.88053,3.96196 3.51224,5.43175 12.63045,11.37699 12.25329,7.98941 14.69379,10.73555 17.42721,19.60979 1.48997,4.83727 2.72665,6.96654 4.67332,8.04626 2.98415,1.65513 6.30155,6.41136 6.30155,9.03466 0,0.95722 1.0983,3.73157 2.4406,6.16524 3.62667,6.57523 3.35551,10.28028 -1.16719,15.94987 l -3.81531,4.78279 3.8036,5.70515 c 5.14938,7.72376 5.9197,15.35256 2.38104,23.5805 -2.89329,6.72734 -6.92947,12.12395 -11.68306,15.62096 -1.84092,1.35429 -4.88065,5.32782 -6.75491,8.83003 -3.384,6.32327 -3.40171,6.44867 -2.54046,17.97934 1.54244,20.65084 2.56618,26.23813 6.10819,33.33667 1.85035,3.70824 3.91121,7.18993 4.57974,7.73711 2.03751,1.66766 12.79139,4.86109 18.39166,5.46152 15.5608,1.66835 17.46642,2.20087 21.52176,6.01445 4.27809,4.02301 4.43614,4.7561 3.16507,14.68009 -0.93504,7.30051 -1.88753,10.23741 -4.8454,14.94036 -2.02484,3.21948 -4.92771,9.02536 -6.45081,12.90193 -2.96809,7.55421 -10.0212,17.97555 -13.5411,20.00754 -2.29162,1.32296 -2.31606,1.39151 -5.10585,14.34253 -1.6455,7.63896 -1.64306,9.05503 0.0266,14.98279 1.01383,3.60057 3.45104,9.9176 5.41597,14.03787 4.5583,9.55816 6.71058,22.49651 4.69558,28.22707 -1.90175,5.40836 -6.42392,11.42147 -12.15053,16.15643 l -4.76152,3.937 1.42296,5.8351 c 1.67321,6.86107 0.48826,12.36721 -4.01045,18.63549 l -2.89148,4.02885 2.88292,2.70991 c 5.78979,5.44239 3.23913,13.76619 -6.46891,21.1104 -4.31942,3.26769 -4.74084,3.96396 -4.74084,7.83318 v 4.24671 l 7.66125,3.84059 c 4.21367,2.11233 8.17723,4.45564 8.80788,5.20735 1.52821,1.82149 1.44482,7.86102 -0.15979,11.57865 -1.30477,3.02296 -9.74858,9.01089 -18.65806,13.23138 l -4.11038,1.9471 v 13.01208 c 0,17.53157 -0.26532,17.89536 -24.42484,33.48646 -9.81922,6.33672 -20.59994,12.83196 -23.95711,14.43386 -5.9007,2.8155 -6.23995,3.18091 -10.18551,10.97113 -2.24484,4.43222 -6.77866,14.29519 -10.07512,21.91769 -3.29648,7.62248 -7.81102,17.39875 -10.03232,21.72502 -6.71268,13.07375 -12.25338,39.11681 -13.54739,63.67681 -0.57528,10.91869 -1.31963,22.50143 -1.65404,25.73936 -0.33443,3.23792 -0.12024,6.46874 0.4763,7.17959 1.47887,1.76273 3.69351,217.1436638 2.45381,238.643873 -0.28495,4.944316 -0.0762,15.265878 0.46378,22.936834 1.10903,15.750271 -1.06206,57.287236 -3.28456,62.839553 -2.88926,7.21789 -1.08107,39.53199 3.33253,59.55653 3.56766,16.18635 3.56555,16.10912 0.43525,16.0638 -1.52756,-0.0225 -4.10508,0.17095 -5.72772,0.42911 -1.62268,0.25807 -3.27326,0.26331 -3.6679,0.0109 z M 174.40697,-461.93719 c -0.37491,-0.59761 -0.65318,-0.42011 -0.70954,0.45261 -0.0508,0.7897 0.2267,1.23216 0.61683,0.98324 0.39023,-0.24894 0.43198,-0.89507 0.0925,-1.43585 z"
       id="path5324"
       inkscape:connector-curvature="0"
       sodipodi:nodetypes="cccccsccccccscscccccsccccsccccscscsccccccccccccccccccccsccccccccsccccscsccccsssccccccccccsccscccsccsccccccccccccsccsssccccccccccscscscccccccccscssscscccscscsccsccscccscsscccssscccscsccccccsccccsccsccccccccccccscccscccccccccccccccccccccccccscscscsccsccscscccccccccccccccccscccsccssccccsccccccccccccccc" />
    <path
       style="fill:#b67621;stroke-width:0.93796569"
       d="m 543.1873,254.10598 c -1.98487,-1.36015 -3.02714,-1.59371 -4.48185,-1.00445 -1.04257,0.42229 -2.7601,0.55616 -3.81679,0.29748 -2.7531,-0.67393 -2.52049,-15.12415 0.51481,-31.98111 1.94152,-10.78258 2.54733,-21.0894 3.4125,-58.05827 0.57857,-24.72159 1.62336,-55.73593 2.32178,-68.920779 1.8927,-35.730315 2.08154,-83.647258 0.37348,-94.76605217 -1.33583,-8.69555503 -1.96869,-10.22118083 -8.86351,-21.36514083 -4.55996,-7.3701 -10.49132,-15.2473 -15.37145,-20.41403 l -7.94647,-8.41314 -5.50339,-0.007 c -11.7376,-0.008 -16.29883,-1.71208 -23.71663,-8.85579 -3.04644,-2.93386 -3.51293,-4.0673 -3.51293,-8.53584 0,-3.30753 -0.68873,-6.00232 -1.9233,-7.52524 -1.49358,-1.84237 -2.17391,-6.14415 -3.04498,-19.2531 -0.96429,-14.512018 -1.43484,-17.195958 -3.35353,-19.128068 -6.90426,-6.95245 -8.65324,-12.6125 -5.57515,-18.04255 1.12417,-1.98305 0.99451,-3.17875 -0.72237,-6.6606 -1.55186,-3.14728 -1.89852,-5.43979 -1.34172,-8.87333 0.41293,-2.54624 0.70458,-6.72493 0.64805,-9.28586 -0.0619,-2.79909 0.62929,-5.64028 1.73254,-7.12335 1.41891,-1.90738 1.56893,-3.05918 0.6615,-5.07751 -0.64553,-1.43588 -1.1737,-3.51181 -1.1737,-4.61328 0,-1.10145 -0.66061,-2.14334 -1.46798,-2.31535 -1.09314,-0.23292 -1.468,-3.38551 -1.468,-12.34536 0,-10.37505 0.28097,-12.23059 2.04027,-13.46989 1.88811,-1.33017 1.91183,-1.85262 0.3179,-7.00745 -0.94725,-3.06353 -2.58204,-7.42419 -3.63286,-9.69034 -3.34889,-7.22206 -3.35262,-8.41874 -0.0334,-10.40845 l 2.99187,-1.79292 4.17291,2.03032 c 2.29509,1.11666 5.01228,2.84755 6.03829,3.84637 1.07265,1.04431 3.8647,2.15947 6.56996,2.62417 6.1802,1.06153 10.07917,3.65347 10.99568,7.30957 l 0.7425,2.96209 6.30116,-1.41272 c 3.46562,-0.777 7.8998,-1.41273 9.85367,-1.41273 4.00895,0 4.7608,-1.65612 1.88914,-4.16124 -1.27918,-1.11592 -3.65261,-1.55626 -10.2759,-1.90656 -4.73689,-0.25059 -10.46219,-0.89245 -12.72291,-1.42651 -2.2607,-0.53406 -5.4643,-1.27219 -7.11914,-1.64024 -3.90675,-0.86907 -11.3487,-9.05424 -12.86292,-14.14749 -0.62181,-2.09159 -1.4186,-4.10011 -1.77065,-4.46344 -0.352,-0.3634 -1.11812,-2.7814 -1.70251,-5.37335 -0.58433,-2.59194 -1.6004,-6.22969 -2.25789,-8.08381 -1.80971,-5.10298 -1.5667,-15.02007 0.4222,-17.23019 0.92695,-1.03007 2.56812,-3.14684 3.64709,-4.70399 3.23949,-4.6753 9.05232,-5.64364 14.19304,-2.36436 4.51965,2.88307 5.83124,1.96522 6.66524,-4.66429 2.24689,-17.86074 2.53745,-18.98206 4.91826,-18.98206 1.35873,0 1.73923,-1.07178 1.73923,-4.89922 0,-5.03248 2.46507,-9.46731 6.42865,-11.56572 1.04653,-0.55398 3.23756,-2.80717 4.86898,-5.00695 2.21828,-2.99116 4.25799,-4.48254 8.08917,-5.91482 2.8177,-1.05329 7.0059,-3.32865 9.30722,-5.05624 2.30132,-1.72766 5.02682,-3.76226 6.05667,-4.52143 1.27782,-0.94188 2.67717,-1.22078 4.40626,-0.8782 1.39361,0.27603 4.61882,0.77962 7.16716,1.11906 2.82127,0.37583 5.80669,1.47377 7.63355,2.80746 1.65007,1.20469 4.45346,2.57914 6.22972,3.05439 2.8302,0.75716 3.22958,1.27257 3.22958,4.16784 0,3.1774 0.15582,3.32243 4.07659,3.79162 2.24214,0.26834 4.83429,1.17794 5.76038,2.02132 1.66402,1.51551 1.69248,1.51611 2.42053,0.0532 1.20827,-2.42833 6.0206,-2.46902 11.15967,-0.0943 4.71393,2.17827 6.7846,5.31447 5.37692,8.14367 -0.47212,0.94885 0.20305,2.30278 1.86211,3.73423 1.88711,1.62817 2.79605,3.74681 3.30568,7.70519 0.48732,3.78495 1.5077,6.26385 3.32658,8.08156 6.30655,6.30251 8.48955,10.05292 8.50304,14.60821 0.0171,6.09904 2.82047,9.65842 7.84929,9.96938 4.91605,0.304 6.67416,1.80356 6.44712,5.49922 -0.23637,3.85011 0.50031,4.60015 3.5097,3.57278 6.2529,-2.13475 12.39353,2.22801 11.03121,7.83742 -0.41232,1.6977 -1.03756,6.33892 -1.38947,10.31377 -0.51336,5.79849 -0.27664,7.58046 1.19686,9.01514 1.01019,0.98346 2.35672,4.13045 2.99231,6.99335 0.71165,3.2055 1.87532,5.54101 3.02895,6.07912 1.03034,0.48057 2.42398,2.14591 3.09701,3.70082 0.67302,1.55483 3.55181,5.0408 6.39733,7.74654 2.86323,2.7226 5.17361,5.80321 5.17361,6.89845 0,2.36758 -5.10462,11.2818 -8.43611,14.73204 -1.31065,1.35737 -4.82421,3.25321 -7.8334,4.22665 -3.00114,0.9708 -6.51362,2.51223 -7.80545,3.42535 -1.29183,0.91313 -4.81264,2.45725 -7.82402,3.43143 -5.14597,1.66459 -9.07985,4.3074 -10.70805,7.19369 -0.5324,0.94376 0.14062,1.38021 2.67597,1.73545 4.00748,0.5614 6.9915,-0.33958 13.89432,-4.19555 3.43926,-1.92116 7.06613,-3.12316 11.2083,-3.71446 9.11689,-1.30148 10.38427,-0.93672 11.87558,3.41802 l 1.28182,3.74308 1.72448,-2.24742 c 1.31623,-1.71538 2.64575,-2.30391 5.61617,-2.48609 6.11492,-0.3751 8.82104,1.27226 10.62886,6.47031 1.49546,4.30006 1.43688,4.74947 -1.04518,8.02013 -1.9482,2.56723 -2.28705,3.68329 -1.30785,4.30793 1.90794,1.21705 1.62461,9.11859 -0.43999,12.27051 -0.96886,1.47918 -1.76155,4.17196 -1.76155,5.98398 0,4.00827 -4.50424,9.02825 -8.42503,9.3897 -2.31106,0.21298 -2.89065,1.06056 -4.73536,6.92437 -1.15611,3.67482 -2.9986,7.31354 -4.09445,8.08597 -1.60983,1.13473 -2.07251,3.30438 -2.40938,11.29777 -0.56154,13.326428 -1.78277,16.967548 -6.88199,20.518768 -3.6894,2.56939 -4.0216,3.15125 -3.34113,5.85256 0.41556,1.64975 1.55655,4.59837 2.53551,6.55242 1.0614,2.11864 1.47853,4.57769 1.03335,6.09147 -0.79581,2.70604 -9.40681,10.39775 -16.41471,14.66238 -3.6029,2.1925 -4.24233,3.07274 -4.24233,5.83983 0,5.60993 -6.92447,8.47493 -14.09269,5.83077 -8.04395,-2.96726 -7.74199,-2.94816 -12.04066,-0.76022 l -4.04084,2.05676 -1.54714,21.33607 c -1.1997,16.5444308 -1.24557,23.6310598 -0.20407,31.555376 3.14659,23.943677 3.82598,81.526829 1.23428,104.610806 -1.73771,15.4778 -1.42349,40.35946 0.64484,51.05726 1.08429,5.60835 1.69351,15.35224 1.65545,26.47862 -0.0458,13.33136 0.3848,18.8777 1.77305,22.84872 3.92702,11.23304 5.29089,15.91486 6.00134,20.60132 0.71162,4.69427 0.63052,4.90072 -2.25516,5.7396 -2.58294,0.75095 -3.16355,0.66734 -4.2351,-0.60995 -0.99794,-1.18938 -1.97548,-1.38253 -4.97697,-0.98339 -2.05429,0.27328 -4.52779,1.13105 -5.49665,1.90618 -0.9689,0.77522 -3.58804,1.64063 -5.82039,1.92327 -2.2323,0.28265 -5.40316,0.96144 -7.04629,1.50847 -1.64316,0.54695 -3.96117,0.99665 -5.15113,0.99912 -1.18994,0 -3.50724,0.67888 -5.14953,1.50293 -3.93195,1.97293 -6.90432,1.89202 -10.06521,-0.27404 z m 5.82498,-51.60383 c -0.32591,-0.51505 -0.59234,-0.0937 -0.59234,0.93641 0,1.03008 0.26665,1.45147 0.59234,0.93642 0.3259,-0.51503 0.3259,-1.35782 0,-1.87283 z m 1.23777,-19.10304 c -0.26898,-1.13309 -0.48922,-0.20598 -0.48922,2.0601 0,2.26617 0.22004,3.19322 0.48922,2.06015 0.26899,-1.13307 0.26899,-2.9872 0,-4.12025 z m 2.33644,-58.05827 c -0.27996,-0.92707 -0.50897,-0.16861 -0.50897,1.68556 0,1.85411 0.22904,2.61262 0.50897,1.68557 0.27995,-0.92708 0.27995,-2.44408 0,-3.37113 z m 32.64127,-169.512222 c 5.4141,-2.12717 8.72159,-2.30764 13.48629,-0.73587 3.22707,1.06452 3.50226,1.02422 5.81363,-0.8502 1.33445,-1.08213 2.42626,-2.32181 2.42626,-2.75481 0,-0.433 3.34453,-2.85871 7.43229,-5.39051 7.9637,-4.93218 13.16788,-10.62009 12.18325,-13.31541 -0.33256,-0.91035 -1.96297,-3.6779 -3.62314,-6.15006 -4.62935,-6.89372 -4.22015,-8.48924 3.55032,-13.8431 l 6.6245,-4.56435 -0.79715,-6.09733 c -0.43844,-3.353518 -0.42964,-8.986738 0.0201,-12.518178 0.72297,-5.68402 1.18513,-6.64044 4.02662,-8.33365 2.10926,-1.25689 3.84941,-3.50514 5.07506,-6.55698 2.60274,-6.48066 6.1148,-10.6395 8.98485,-10.6395 1.69432,0 2.32492,-0.50582 2.32492,-1.86483 0,-1.02565 1.05668,-3.63826 2.34819,-5.80582 2.79835,-4.69651 2.98803,-7.53971 0.58777,-8.8104 -0.96887,-0.51294 -1.76157,-1.60158 -1.76157,-2.41927 0,-1.11787 -0.50992,-1.35557 -2.05517,-0.95822 -4.12748,1.06153 -10.34777,1.16506 -13.21186,0.21994 -1.61478,-0.53286 -4.02087,-2.40832 -5.34679,-4.16783 l -2.41086,-3.19898 -2.75303,1.86934 c -3.73842,2.53838 -9.67762,3.67212 -16.04603,3.06292 -7.47552,-0.71512 -12.7632,-2.29259 -15.7187,-4.6893 -2.27615,-1.84589 -2.51844,-2.80905 -2.16367,-8.6011 l 0.39952,-6.52245 6.94986,-3.96586 c 8.18165,-4.66879 12.05924,-6.42162 20.22058,-9.14077 7.873,-2.62304 9.60084,-3.93845 10.87124,-8.27619 0.77906,-2.66004 0.62665,-4.25001 -0.58456,-6.09919 -0.90107,-1.37565 -1.63831,-3.33187 -1.63831,-4.3471 0,-1.19593 -1.2405,-2.40938 -3.52314,-3.44619 -2.63429,-1.19653 -3.52315,-2.19392 -3.52315,-3.9532 0,-1.29407 -1.94937,-5.23215 -4.33194,-8.75137 -3.98923,-5.89235 -4.38798,-7.13922 -5.04109,-15.76271 -0.73614,-9.71925 -2.36057,-13.38868 -7.15158,-16.1545 -1.24609,-0.71933 -2.26563,-1.96956 -2.26563,-2.77818 0,-0.80869 -2.15671,-2.84613 -4.7927,-4.52758 -7.65711,-4.88446 -12.18524,-11.64138 -13.11804,-19.57492 -0.50331,-4.28095 -0.77634,-4.60457 -7.00573,-8.3033 -8.73908,-5.18884 -10.07719,-6.67288 -12.10095,-13.42 -0.95555,-3.18578 -1.7374,-5.89198 -1.7374,-6.01378 0,-0.12175 -3.52323,-0.46207 -7.82944,-0.75626 -12.99383,-0.88765 -15.05122,-1.97353 -18.47835,-9.75303 -2.41731,-5.48723 -4.29356,-8.61511 -5.16767,-8.61511 -2.09401,0 -15.71778,6.47804 -18.84603,8.96113 -3.02762,2.40324 -3.92852,4.01164 -4.92299,8.78912 -0.8465,4.06639 -2.58728,7.67313 -5.71501,11.84074 -3.98425,5.30884 -4.5718,6.82884 -5.14657,13.31317 -0.78207,8.82396 -3.15623,12.44656 -10.84353,16.54556 -4.92747,2.62737 -5.85735,2.83976 -11.41555,2.6073 l -6.05107,-0.25306 -0.94094,2.62198 c -3.14014,8.75025 -3.28597,9.92407 -1.62151,13.05135 0.91533,1.71988 2.03673,5.63915 2.492,8.70964 0.45527,3.07042 1.54636,6.10885 2.42465,6.75213 0.87826,0.6433 3.13828,2.96757 5.0222,5.16517 3.83661,4.47535 7.17425,5.64604 19.51252,6.84406 14.08428,1.36748 19.37739,4.24499 19.37739,10.53416 0,3.17523 -0.54456,4.0933 -3.57464,6.02615 -3.07921,1.96425 -4.17799,2.22082 -7.92717,1.85097 -3.35656,-0.33104 -5.42722,-0.01 -9.04997,1.40396 -6.30521,2.46063 -11.45424,2.41373 -14.59459,-0.13297 -1.33871,-1.08558 -2.44215,-3.02397 -2.45203,-4.30756 -0.0232,-3.19432 -1.20411,-4.1452 -7.56904,-6.10203 -4.5876,-1.4104 -5.36241,-1.48508 -4.74129,-0.45705 1.73857,2.87768 5.26077,15.76998 5.27095,19.29326 0.006,2.10687 -0.51122,5.58745 -1.14957,7.73455 -0.79378,2.67 -0.76186,4.89255 0.10096,7.03179 0.69387,1.7204 1.9685,5.09534 2.83254,7.50001 0.86404,2.40459 3.06465,5.74694 4.89022,7.42734 4.13562,3.80674 4.54359,8.89302 0.97044,12.09888 -8.45023,7.58182 -9.60849,11.61908 -5.21081,18.16347 5.14646,7.65875 8.14542,17.20248 8.17155,26.00463 0.0201,7.12409 0.47237,9.11343 3.08241,13.589758 2.73905,4.69763 3.14205,6.72689 3.86817,19.47761 0.70108,12.31067 1.17047,14.80088 3.4743,18.43211 2.07603,3.27216 3.55785,4.47049 6.71638,5.43126 2.22895,0.67805 4.22454,1.23278 4.43462,1.23278 1.19826,0 -3.8027,-7.41655 -5.88316,-8.72478 -1.42123,-0.89379 -2.83367,-3.04419 -3.29868,-5.02214 -0.90883,-3.86601 1.02471,-6.32999 6.3714,-8.11924 1.61479,-0.54043 3.51638,-1.45543 4.22581,-2.03346 1.82677,-1.48832 3.11644,-0.75221 9.41387,5.37312 3.06281,2.9791 8.11699,7.51626 11.23159,10.08258 3.11454,2.56633 5.66281,4.8318 5.66281,5.03437 0,0.20264 2.7745,2.98209 6.16557,6.17671 l 6.16552,5.80838 0.33123,-3.35134 c 0.47412,-4.79704 1.1259,-5.75219 2.93066,-4.29482 1.60552,1.29646 8.83257,2.16831 9.78924,1.18094 1.3471,-1.39047 2.8031,0.39765 2.8031,3.44244 v 3.21696 l 5.65681,-0.3467 c 4.84161,-0.29681 6.15312,-0.0682 9.10146,1.58458 1.89463,1.0622 3.70899,1.93142 4.03195,1.93157 0.32292,1.6e-4 2.70106,-0.83027 5.28476,-1.84535 z m -26.91359,-26.47441 c -0.3457,-0.35674 -1.83018,-0.50619 -3.29888,-0.33209 -5.53035,0.65565 -7.16746,-4.60391 -8.90548,-28.61022 -0.84403,-11.658098 -0.74119,-12.905638 1.21582,-14.748288 1.72793,-1.62698 3.0205,-2.00514 6.74116,-1.9724 4.04577,0.0352 4.75367,0.31568 5.84468,2.31198 0.68271,1.24934 1.24129,3.47608 1.24129,4.94836 0,2.47869 0.11758,2.56753 1.58847,1.19923 0.87362,-0.81275 5.40924,-6.0287 10.07915,-11.59105 10.53502,-12.54831 12.14368,-13.7425 17.67694,-13.12199 2.26902,0.25448 5.00294,1.11981 6.07534,1.92296 1.07243,0.80307 2.52572,1.46022 3.22958,1.46022 0.70387,0 1.27975,0.53054 1.27975,1.17892 0,2.59592 -14.6014,20.07909 -25.75052,30.832688 l -11.8299,11.41028 v 5.95842 c 0,3.27712 -0.51539,6.82316 -1.14534,7.88005 -1.15225,1.93329 -2.87629,2.4762 -4.04206,1.27293 z m 0.15807,-14.13655 c -0.26997,-1.13869 -0.49801,-0.38483 -0.50682,1.6753 -0.009,2.06013 0.21204,2.99184 0.49078,2.0704 0.27863,-0.92137 0.28597,-2.60693 0.0171,-3.7457 z m -0.0406,-4.0837 c -0.37489,-0.59759 -0.65317,-0.42012 -0.70952,0.45263 -0.0508,0.78966 0.22669,1.23218 0.61684,0.98324 0.39022,-0.24894 0.43191,-0.89507 0.0925,-1.43587 z m -5.49722,-23.749128 c -0.77278,-0.84353 -1.07743,0.14601 -1.01244,3.28827 l 0.093,4.49484 1.01241,-3.28827 c 0.6066,-1.97016 0.56934,-3.77199 -0.093,-4.49484 z m 33.28567,-49.93287 c -0.95101,-1.58098 0.63634,-2.43448 1.9894,-1.0697 1.43769,1.45011 1.40886,2.2257 -0.0826,2.2257 -0.66618,0 -1.52416,-0.52021 -1.90663,-1.156 z m -106.55985,-88.00667 c -2.20366,-3.51323 -2.48897,-8.64963 -0.52354,-9.42446 1.38475,-0.5459 8.02955,3.55586 8.02955,4.9566 0,1.28223 -2.14737,0.79948 -4.01675,-0.90309 -0.99062,-0.90218 -2.04783,-1.48299 -2.34934,-1.29069 -0.50358,0.32124 0.89552,5.24008 2.3785,8.36235 1.25463,2.64138 -1.68657,1.21967 -3.51842,-1.70071 z m 178.29698,84.90943 c 0.4158,-0.69124 0.0489,-1.70767 -0.81479,-2.25873 -1.31145,-0.83656 -2.00297,-0.62913 -4.1887,1.25668 l -2.61787,2.25872 h 3.43269 c 2.12937,0 3.71972,-0.47712 4.18867,-1.25667 z m -85.3787,-158.01339 c -0.39025,-0.24894 -1.40315,-0.27553 -2.25091,-0.0592 -0.93684,0.23912 -0.65858,0.41668 0.70954,0.45263 1.23799,0.0322 1.93161,-0.14459 1.54137,-0.39352 z M 358.42113,177.15705 c -2.29128,-1.83786 -11.93724,-29.03025 -12.99951,-36.64615 -0.37355,-2.67817 -1.2452,-5.54363 -1.937,-6.36768 -1.16953,-1.3931 -1.30722,-1.34059 -1.96207,0.74913 -0.38732,1.23609 -0.28428,3.0902 0.22903,4.12027 1.56795,3.14639 8.01129,23.47748 8.01129,25.27848 0,3.95659 -9.19526,6.22693 -13.35232,3.29674 -1.08488,-0.76471 -2.54957,-3.54589 -3.2549,-6.18038 -1.71235,-6.39609 -2.86877,-6.90886 -3.71434,-1.64706 -0.55828,3.47413 -1.33419,4.69829 -3.85936,6.0887 -3.55686,1.95855 -7.74667,1.75222 -11.44813,-0.56358 -2.08223,-1.30276 -2.25774,-1.28776 -4.93777,0.42175 -1.70552,1.08798 -4.16013,1.77263 -6.35535,1.77263 -3.05645,0 -3.5765,0.2795 -3.5765,1.92206 0,4.30846 -5.88686,6.75446 -7.5441,3.13463 -0.42439,-0.92706 -1.08089,-10.61906 -1.45887,-21.53774 -0.68354,-19.74543 -0.70229,-19.86029 -3.48382,-21.35047 -2.27551,-1.21914 -3.04413,-2.68469 -4.12552,-7.86596 -1.61094,-7.71853 -0.68063,-30.06077 1.80924,-43.45004 0.95774,-5.150331 1.73637,-10.881244 1.73035,-12.735362 -0.008,-1.854119 1.06235,-8.764924 2.37419,-15.357346 2.65952,-13.364637 4.18596,-27.120776 6.02671,-54.3125672 0.68334,-10.0946468 1.77479,-23.0734768 2.42536,-28.8418468 2.17654,-19.29804 2.7279,-53.56117 1.06743,-66.33437 -1.69071,-13.005868 -1.23255,-21.665848 4.06062,-76.751138 2.29214,-23.85409 4.92661,-74.58794 4.55138,-87.64926 -0.51209,-17.82538 -2.88636,-53.05191 -3.91312,-58.05825 -0.78093,-3.80795 -4.38786,-12.46275 -8.97251,-21.5298 -7.16922,-14.17842 -7.81534,-15.11133 -9.95926,-14.37944 -6.24785,2.133 -9.74314,-0.88819 -27.459,-23.73443 -7.71983,-9.95545 -14.12867,-17.35811 -14.79892,-17.09386 -2.28027,0.89898 -14.62392,1.97233 -21.60138,1.87833 -8.68667,-0.11699 -25.70358,-2.69921 -30.78469,-4.67137 -4.37104,-1.69656 -11.2713,-8.57491 -14.52341,-14.47725 -1.45533,-2.64137 -2.2546,-6.09084 -2.2546,-9.73061 0,-6.26115 -3.2542,-13.19404 -11.26049,-23.98974 l -4.44464,-5.99312 -1.11745,-23.97244 c -0.81284,-17.43724 -0.75316,-25.35477 0.21903,-29.04304 2.77205,-10.51672 1.26002,-14.24874 -10.25054,-25.30059 -3.95797,-3.80027 -7.85844,-8.29767 -8.66771,-9.9942 -0.83335,-1.74702 -1.46488,-6.98302 -1.45636,-12.07435 0.0125,-8.49399 0.23535,-9.33282 4.00961,-15.21344 l 3.99458,-6.2238 -1.45433,-15.12666 c -1.18359,-12.31091 -2.00553,-16.24226 -4.4154,-21.11979 -2.48106,-5.02158 -2.84856,-6.88509 -2.2672,-11.49563 0.89993,-7.13693 3.77384,-11.1243 11.96725,-16.60379 l 6.66726,-4.45885 -3.38647,-2.71456 c -1.86256,-1.49302 -5.10938,-4.28079 -7.21514,-6.19504 -2.1058,-1.91425 -4.85944,-3.98612 -6.1193,-4.60416 -2.49266,-1.22284 -5.90626,-8.515 -5.90626,-12.61704 0,-1.40992 1.01937,-3.61558 2.26524,-4.90151 2.19463,-2.26516 6.31004,-10.79356 8.53686,-17.69097 1.47182,-4.55901 2.00535,-16.82472 0.91236,-20.9759 -0.48815,-1.85411 -1.78586,-7.07936 -2.88373,-11.61164 -1.89176,-7.80953 -5.44859,-16.96226 -12.02168,-30.93507 -3.34708,-7.11509 -2.9787,-8.40261 3.74323,-13.08311 3.99003,-2.77828 8.98217,-3.72824 10.6338,-2.02351 0.4154,0.42873 2.79003,1.59887 5.27699,2.60032 2.48694,1.00149 7.47702,4.18356 11.08899,7.07131 5.9281,4.73942 7.2215,5.37043 13.28899,6.4831 8.86586,1.62587 12.96201,2.97226 17.61693,5.79067 4.31022,2.60966 7.30777,7.94014 7.30777,12.99517 0,1.77934 0.4496,3.23515 0.99911,3.23515 1.71719,0 8.75674,-1.59873 14.26793,-3.24033 3.67874,-1.09579 8.13987,-1.63717 14.67984,-1.78145 5.16729,-0.11407 10.05571,-0.36859 10.8631,-0.56579 0.83991,-0.20514 1.46799,-1.65537 1.46799,-3.38958 0,-2.37619 -0.82463,-3.60408 -3.81677,-5.68323 l -3.81678,-2.65218 -14.75051,-0.14908 c -14.46665,-0.14631 -14.92179,-0.20322 -23.65154,-2.95536 -4.89558,-1.54341 -10.14853,-2.80808 -11.67322,-2.81038 -4.94977,-0.009 -11.10889,-1.45216 -13.70441,-3.21452 -1.39539,-0.94749 -4.84984,-4.40343 -7.67656,-7.67983 -2.82671,-3.27639 -6.78882,-7.81121 -8.80471,-10.07735 -2.65346,-2.98288 -3.6711,-5.09466 -3.68651,-7.65013 -0.0125,-1.94143 -1.37972,-6.15534 -3.04006,-9.36423 -1.98755,-3.84128 -3.34702,-8.64945 -3.97952,-14.07491 -0.70511,-6.04791 -1.68111,-9.23716 -3.66819,-11.98621 -2.04795,-2.8333 -2.8261,-5.49057 -3.19451,-10.90883 -0.45039,-6.62357 -0.21739,-7.59301 3.09508,-12.86976 2.81408,-4.48306 3.82964,-7.60525 4.73656,-14.56188 1.3172,-10.10409 3.8216,-16.13015 7.74322,-18.63173 5.8194,-3.71218 17.65189,-3.81762 23.81459,-0.21215 1.6434,0.96149 4.42694,3.74479 6.18556,6.18513 l 3.19758,4.43702 2.19065,-2.13277 c 1.71823,-1.67278 2.36479,-4.24543 2.99782,-11.92839 0.83945,-10.18785 2.71099,-20.64397 4.50217,-25.15298 0.57285,-1.44214 1.41043,-4.64464 1.86122,-7.11684 0.4624,-2.5356 2.2957,-6.3724 4.20593,-8.8024 3.1367,-3.99 3.68395,-4.3075 7.42455,-4.3075 3.66606,0 4.15097,-0.2589 5.26129,-2.8093 0.67266,-1.5451 1.22598,-3.1198 1.22957,-3.4994 0.003,-0.3796 0.72998,-1.2224 1.61415,-1.8729 1.25108,-0.9204 1.39254,-2.4146 0.63797,-6.7378 -0.5333,-3.0554 -0.66009,-5.8747 -0.28163,-6.2652 0.37831,-0.3905 1.12733,-5.8128 1.66448,-12.0496 0.53713,-6.2367 1.56159,-12.5195 2.27653,-13.9616 0.71494,-1.4421 1.51981,-9.3028 1.78866,-17.4684 0.35783,-10.86854 0.93487,-15.38474 2.15378,-16.85564 0.91573,-1.105 2.25047,-3.4072 2.96607,-5.1159 0.85752,-2.0474 3.47103,-4.5588 7.66553,-7.3658 7.83446,-5.2429 10.73615,-9.0521 11.82178,-15.5187 1.28052,-7.6276 5.2223,-9.5797 16.36466,-8.1041 8.63555,1.1436 14.02395,0.1187 23.54508,-4.4783 8.90015,-4.2972 12.32954,-4.8772 28.30663,-4.787 18.72835,0.1055 34.24422,3.8425 38.68145,9.3161 1.00129,1.2351 3.07606,5.8667 4.61056,10.2923 3.30116,9.5206 5.54551,13.3207 10.82107,18.3214 2.15179,2.0397 3.9123,4.0225 3.9123,4.4062 0,0.3837 1.84968,3.1298 4.11037,6.1025 2.26069,2.9727 4.11038,6.1221 4.11038,6.99884 0,0.8767 0.84981,3.0691 1.8885,4.872 1.09878,1.9072 2.28847,7.4469 2.845,13.2469 l 0.95644,9.969 5.29623,3.1461 c 2.91292,1.7304 5.86049,4.0929 6.55013,5.2499 0.68963,1.1571 1.25387,5.7833 1.25387,10.2804 v 8.1765 l 4.69626,1.5283 c 6.61522,2.1528 10.69147,6.4064 11.66141,12.1689 0.43391,2.5779 1.47086,5.4805 2.30431,6.4502 2.78342,3.2385 3.64646,10.295 1.80939,14.7941 -2.50861,6.14372 -2.15812,7.51108 3.5161,13.71712 2.85849,3.12641 5.57629,7.0051 6.03958,8.61932 0.63385,2.20844 3.08037,4.5264 9.88348,9.36422 4.97261,3.53613 9.9563,6.91243 11.07485,7.5029 3.17641,1.6768 6.57562,6.48556 8.43192,11.92848 0.93365,2.7375 2.02369,5.92458 2.42234,7.08241 0.39861,1.15785 2.18795,3.03853 3.97631,4.1793 3.14466,2.006 5.80171,6.33451 5.8152,9.47344 0.003,0.83833 1.06347,3.44253 2.35531,5.78712 3.36665,6.11021 3.02819,9.00594 -1.69297,14.48494 l -4.04183,4.69052 4.04451,6.32818 c 5.46558,8.55164 6.1672,13.5203 3.02757,21.44012 -2.95134,7.44485 -7.03604,13.36471 -11.95577,17.32712 -1.9854,1.59903 -5.1647,5.62513 -7.06515,8.94688 -2.91567,5.0963 -3.44728,7.11844 -3.40379,12.9475 0.0299,3.79941 0.57569,9.43633 1.21629,12.52653 0.64056,3.09017 1.58198,8.98966 2.09205,13.10993 0.60655,4.8995 2.10984,9.78263 4.34502,14.11383 3.3837,6.55674 3.48323,6.647 10.02836,9.09396 3.63591,1.35933 8.92835,2.71262 11.76097,3.00733 12.58544,1.30937 18.04643,2.60684 21.29657,5.0598 4.55344,3.43662 4.85526,4.74912 3.5463,15.42234 -0.94424,7.69931 -1.83736,10.5596 -4.73723,15.17126 -1.96551,3.1257 -4.96268,9.02518 -6.66039,13.10992 -3.54359,8.52597 -10.68064,18.79786 -13.80119,19.86319 -1.24694,0.4257 -2.12738,1.56315 -2.12738,2.74832 0,1.11211 -0.88403,5.79454 -1.96451,10.40535 -2.38352,10.17121 -1.28157,16.8911 4.95573,30.22081 9.26018,19.78983 7.57549,30.82888 -6.59512,43.21474 -5.08174,4.44169 -5.72276,5.39662 -4.935,7.35214 0.49797,1.23606 0.90535,5.28756 0.90535,9.00328 0,5.74408 -0.49823,7.50335 -3.32693,11.74681 l -3.32697,4.99092 3.03335,3.30179 c 1.66836,1.81599 3.03336,4.30661 3.03336,5.53472 0,4.3353 -3.58497,9.98634 -9.05094,14.26711 -5.06676,3.96813 -5.43398,4.55033 -5.52809,8.76479 l -0.10095,4.51434 7.22497,3.39851 c 9.59689,4.51421 11.46765,6.57133 10.48239,11.52661 -1.38864,6.98403 -2.70629,8.40587 -13.8885,14.98671 l -10.69781,6.2957 -0.0836,13.38745 c -0.0789,12.62863 -0.24302,13.57851 -2.89458,16.75856 -3.66098,4.39067 -33.18422,24.2289 -43.50867,29.2358 l -8.03241,3.89538 -5.36509,11.33983 c -2.95082,6.23693 -7.48867,16.22797 -10.0841,22.20236 -2.59544,5.97438 -6.33275,14.06508 -8.30507,17.97933 -4.93683,9.79747 -11.48192,36.79373 -12.8954,53.18886 -0.62166,7.21047 -1.12018,20.02074 -1.10782,28.46728 0.0654,44.59167 1.0331,153.921818 1.73437,195.899798 0.51281,30.70009 0.37397,50.6393918 -0.38604,55.436279 -0.74461,4.699722 -0.78573,9.026824 -0.11052,11.611651 2.52898,9.679176 0.27664,74.562462 -2.72264,78.433472 -1.56539,2.02036 -0.51593,38.25081 1.35193,46.67272 0.68538,3.09018 2.08051,9.32677 3.10039,13.85907 2.05657,9.13964 1.95171,14.07429 -0.26134,12.29913 z M 311.02856,90.693154 c 0.9914,-9.269754 0.94336,-13.853807 -0.21206,-20.226734 l -1.49386,-8.240527 -1.02959,6.659546 c -0.75731,4.898317 -0.65092,7.110901 0.40233,8.366308 1.02673,1.223717 1.21878,4.215101 0.67871,10.570631 -0.41428,4.875104 -0.98147,11.560803 -1.26044,14.857012 -0.40392,4.77298 -0.28929,5.38307 0.56285,2.99655 0.58854,-1.6481 1.64691,-8.390353 2.35196,-14.982786 z m 26.61833,-20.741766 c -0.37486,-0.597589 -0.65316,-0.420118 -0.7095,0.452629 -0.0508,0.789669 0.22671,1.232184 0.61679,0.983244 0.39027,-0.248939 0.43197,-0.89507 0.0925,-1.435873 z M 310.71155,29.493993 c -0.20341,-5.070921 -0.3706,-1.129176 -0.37135,8.759457 -7.7e-4,9.888634 0.16588,14.037589 0.36995,9.219876 0.20439,-4.817637 0.20505,-12.908337 10e-4,-17.979333 z m 2.2848,-25.8739812 c -0.2976,-0.728839 -0.56095,-0.31389 -0.58486,0.922188 -0.0232,1.236081 0.21971,1.83247 0.54136,1.325227 0.32157,-0.507166 0.34128,-1.518503 0.0436,-2.247415 z m 2.37766,-34.4643538 c -0.26998,-1.13869 -0.49801,-0.38484 -0.50684,1.6753 -0.008,2.06013 0.21206,2.99183 0.49082,2.07039 0.27863,-0.92137 0.28597,-2.60693 0.0171,-3.74569 z m 19.93572,-53.93403 c -0.29762,-0.72883 -0.56097,-0.31389 -0.58491,0.9222 -0.0232,1.23607 0.21972,1.83246 0.54139,1.32522 0.32159,-0.50717 0.34126,-1.51851 0.0436,-2.24742 z M 320.03107,-198.98945 c -0.37488,-0.59759 -0.65314,-0.42012 -0.7095,0.45263 -0.0508,0.78966 0.2267,1.23218 0.61681,0.98324 0.39023,-0.24894 0.43195,-0.89506 0.0926,-1.43587 z m 17.59135,-27.76496 c -0.3259,-0.51503 -0.59234,-0.0937 -0.59234,0.93642 0,1.03006 0.26664,1.45146 0.59234,0.93642 0.32593,-0.51503 0.32593,-1.35781 0,-1.87284 z m -17.21915,-133.53402 c 0,-1.16532 -0.6655,-1.87283 -1.7616,-1.87283 -2.14027,0 -2.18569,0.3363 -0.30461,2.25757 1.8718,1.91194 2.0663,1.87574 2.0663,-0.38474 z m 43.08015,-5.00986 c -0.37486,-0.59761 -0.65316,-0.42011 -0.70949,0.45261 -0.0508,0.78972 0.2267,1.23218 0.61678,0.98324 0.39025,-0.24892 0.43198,-0.89507 0.0926,-1.43585 z m 1.54655,-4.72894 c 0.84271,-0.64768 0.95683,-1.1237 0.26931,-1.1237 -0.65589,0 -1.49673,0.50566 -1.86852,1.1237 -0.37178,0.61804 -0.49302,1.12371 -0.26932,1.12371 0.2237,0 1.06447,-0.50567 1.86853,-1.12371 z m 24.8031,-10.25451 c 12.04785,-3.53074 18.7368,-8.51248 22.11586,-16.47119 0.95651,-2.25282 3.73024,-5.1929 7.77435,-8.24054 9.95363,-7.50106 12.57278,-11.47111 13.46767,-20.41403 0.86143,-8.60884 1.20872,-9.16255 10.70221,-17.06466 7.28806,-6.06637 11.49568,-11.11021 11.5389,-13.83214 0.0141,-0.89343 -2.37649,-3.41967 -5.31266,-5.61391 -2.93619,-2.19423 -6.70283,-5.76843 -8.37044,-7.94264 -3.56396,-4.64678 -3.2694,-7.53257 1.21485,-11.90234 2.45601,-2.39325 3.17117,-4.37099 4.21526,-11.65678 0.69157,-4.82601 1.71612,-9.54558 2.27679,-10.48794 0.56063,-0.94239 0.78066,-3.39901 0.48894,-5.45915 -0.38549,-2.72232 0.29528,-5.33823 2.49132,-9.57466 1.66195,-3.20592 3.02174,-7.48752 3.02174,-9.51465 0,-7.09198 2.11564,-10.96746 8.92263,-16.34464 6.89053,-5.44315 8.12677,-7.51917 9.23439,-15.50749 0.65531,-4.72607 0.33125,-5.94682 -3.28004,-12.36079 -2.20391,-3.91424 -4.888,-10.21465 -5.96463,-14.00087 -1.07658,-3.78624 -3.25805,-9.32336 -4.84771,-12.30472 -3.22608,-6.05053 -3.58768,-9.37849 -1.23391,-11.35742 1.19144,-1.0017 1.43592,-3.31196 0.99107,-9.36423 -0.65992,-8.97808 0.36687,-11.51755 6.4511,-15.9549 1.93625,-1.41214 5.96817,-5.60152 8.95983,-9.30977 2.99169,-3.70823 7.03646,-8.4701 8.98834,-10.58193 4.41796,-4.77999 6.96362,-12.22676 6.99019,-20.44834 0.0267,-7.76839 -1.29382,-9.04864 -9.32186,-9.04864 -3.00028,0 -6.04339,0.37531 -6.76247,0.83401 -2.20898,1.40908 -13.13151,0.009 -21.44365,-2.74801 -4.0028,-1.32788 -6.8134,-4.98729 -7.6672,-9.98284 -0.39573,-2.31529 -2.13155,-6.738 -3.85743,-9.82818 l -3.13796,-5.61855 0.37904,-19.85219 c 0.33225,-17.39431 0.12917,-20.25025 -1.63981,-23.06739 -2.78805,-4.44011 -1.78822,-8.55932 3.40167,-14.01498 5.30103,-5.57247 11.35099,-14.69822 11.27228,-17.00306 -0.55878,-16.35992 -1.07676,-20.83779 -2.63526,-22.78054 -4.33631,-5.40548 -9.3135,-14.48628 -9.81101,-17.90008 -0.30027,-2.06015 -0.96425,-9.0305 -1.47557,-15.48968 l -0.92968,-11.74401 -5.60296,-3.97525 c -10.82839,-7.6827 -15.90858,-13.87508 -15.90858,-19.39136 0,-1.1235 -0.78945,-3.00831 -1.75436,-4.1885 -0.96489,-1.18015 -1.7576,-2.84085 -1.76157,-3.69045 -0.003,-0.8496 -1.61911,-2.30487 -3.58943,-3.23408 -4.97742,-2.34745 -6.07181,-4.48905 -7.12862,-13.9497 -1.38869,-12.43181 -1.30404,-12.21461 -7.84301,-20.12251 -5.31123,-6.4231 -6.10833,-7.9494 -6.10833,-11.6959 0,-3.6609 -0.53043,-4.7346 -3.52758,-7.1403 -3.23071,-2.5933 -6.66661,-8.2537 -8.7553,-14.4237 -0.45446,-1.3425 -1.75664,-2.7585 -2.89375,-3.1467 -1.77347,-0.6055 -2.17542,-2.2822 -2.82685,-11.7927 -0.85831,-12.5308 -3.80179,-28.1774 -5.7393,-30.50834 -0.71066,-0.855 -5.38867,-4.3529 -10.39555,-7.7732 -5.00688,-3.4203 -9.94312,-7.3475 -10.9694,-8.7271 -1.86059,-2.5011 -6.70346,-15.6766 -6.9976,-19.0376 -0.12196,-1.3908 -1.79203,-2.2962 -7.78848,-4.222 -4.19842,-1.3483 -9.87256,-2.8791 -12.60921,-3.4018 l -4.97567,-0.9504 -7.35537,4.9176 c -6.77207,4.5276 -7.84752,4.9585 -13.56087,5.4334 -3.5283,0.2933 -10.49447,0.1087 -16.14685,-0.4277 -12.29844,-1.1671 -15.38107,-0.5288 -16.33911,3.3834 -0.3578,1.4611 -0.91402,3.7521 -1.23601,5.0912 -0.32192,1.3391 -3.1489,5.2129 -6.28196,8.6086 -5.51187,5.9738 -5.72159,6.4185 -6.47198,13.7227 -0.42656,4.1518 -1.50004,8.45294 -2.38557,9.55804 -3.89958,4.8664 -4.58897,12.2749 -2.29857,24.7009 1.19311,6.4728 2.15422,15.9826 2.1358,21.1329 -0.037,10.3616 -1.54436,13.714 -8.43744,18.7666 -1.96041,1.4369 -3.89351,3.914 -4.35486,5.5804 -0.45634,1.6481 -2.56135,4.6822 -4.67782,6.7423 -2.44691,2.3818 -4.13963,5.1527 -4.64868,7.6099 -0.97582,4.71003 -4.55238,11.51784 -7.82645,14.89711 -1.94356,2.00604 -2.73428,4.85991 -3.98033,14.36549 -1.32814,10.13244 -2.0049,12.42861 -4.6411,15.74715 -6.29505,7.92437 -13.78676,11.35178 -22.77846,10.42099 -3.72075,-0.38516 -10.84624,-3.69033 -10.84624,-5.03105 0,-0.28463 -0.84428,-1.80644 -1.87615,-3.38181 -1.72995,-2.64111 -1.98035,-2.75041 -3.21285,-1.4025 -0.73522,0.80403 -1.67325,4.83297 -2.08456,8.95324 -0.60563,6.06695 -1.44619,8.5163 -4.42066,12.88159 -4.38171,6.43053 -4.76204,11.21854 -1.30037,16.37007 2.5132,3.74002 8.71385,30.07239 7.54059,32.02274 -0.37009,0.61516 0.92708,2.19172 2.97763,3.61904 1.99836,1.39098 6.60065,6.2373 10.22735,10.76957 7.0034,8.75223 7.73354,9.3348 11.72249,9.35279 1.39966,0.006 6.02286,1.18848 10.27383,2.62706 5.99263,2.02796 8.98273,2.59131 13.3094,2.50756 3.06923,-0.0594 7.6943,0.25383 10.27794,0.69608 2.58365,0.44224 7.82123,1.20426 11.63904,1.69336 6.13055,0.78538 7.80004,1.42681 14.29105,5.49071 6.10418,3.82172 7.68715,5.35067 9.34157,9.02277 3.4461,7.64898 0.54418,14.23967 -8.30694,18.86623 -6.72664,3.51608 -10.31671,4.0778 -18.02241,2.81983 l -6.30066,-1.02858 -8.31024,3.39158 c -10.77893,4.3991 -15.92669,5.29106 -23.93701,4.14754 -4.3201,-0.6167 -6.99606,-1.53127 -9.06115,-3.09682 -2.92431,-2.21693 -3.43404,-3.39061 -4.84971,-11.1672 -1.14677,-6.29936 -3.53999,-8.32473 -12.17616,-10.30462 -4.05331,-0.92924 -8.71918,-2.36668 -10.36863,-3.19433 -1.64947,-0.82763 -3.16119,-1.40134 -3.35946,-1.27488 -0.19842,0.12657 0.64167,2.28385 1.86647,4.79418 1.22479,2.51033 2.82029,7.38399 3.54546,10.83035 0.72523,3.44637 2.07987,8.39399 3.01041,10.99472 1.97773,5.5278 2.16852,15.73289 0.47085,25.18607 -1.65847,9.23478 -3.31729,12.98156 -6.95138,15.70099 -3.76726,2.8191 -6.34791,7.84017 -4.6861,9.1175 0.63332,0.48674 1.92323,2.52963 2.86652,4.53976 0.99254,2.11504 4.44045,5.86397 8.1842,8.89872 8.73442,7.08032 11.20281,10.17759 11.20281,14.05712 0,3.63911 -4.05586,8.32863 -10.51919,12.16274 -8.34926,4.95287 -10.37134,11.45575 -5.89714,18.96494 1.94815,3.26963 2.61167,7.16543 3.70846,21.77338 l 1.33583,17.79124 -5.05964,7.00656 c -4.64971,6.4389 -5.05821,7.49711 -5.04228,13.06156 0.0201,7.20694 1.91878,10.53846 8.66377,15.20627 2.62729,1.81815 6.62273,5.89671 8.87882,9.06344 2.25607,3.16676 4.95512,6.87188 5.99791,8.23359 1.66045,2.16832 1.75926,4.07579 0.79547,15.35732 -0.60524,7.08485 -0.83618,21.64645 -0.51325,32.35913 l 0.58721,19.47762 5.53873,5.99312 c 6.81199,7.37074 9.14083,12.89744 9.14204,21.69513 8.3e-4,5.92759 0.42861,7.3488 3.43024,11.39617 3.71141,5.00442 4.80711,5.56824 13.42964,6.91068 3.13731,0.48844 9.21473,2.01516 13.50548,3.39272 6.56228,2.10688 8.54741,2.4218 12.49887,1.98276 2.58364,-0.28707 4.60771,-0.84159 4.49784,-1.2323 -0.1099,-0.39071 -5.05061,-6.10073 -10.97956,-12.68895 -5.92887,-6.58825 -12.31285,-13.9074 -14.18651,-16.26479 -3.62549,-4.56143 -4.39033,-8.83099 -1.87301,-10.4558 0.84352,-0.54448 1.90313,-1.6119 2.35471,-2.37206 0.45154,-0.76017 1.92634,-1.5665 3.2773,-1.79186 1.97143,-0.32886 2.32785,-0.81953 1.80551,-2.48552 -0.75947,-2.42229 0.84071,-3.40159 5.34561,-3.27146 l 3.16015,0.0914 -2.8541,-3.59282 c -1.56977,-1.97606 -2.53331,-4.12612 -2.14119,-4.77792 0.95219,-1.58288 4.82861,-2.84626 6.62638,-2.15965 3.69379,1.41078 12.5993,6.72983 12.59985,7.52563 3e-4,0.49001 2.7942,3.3747 6.20862,6.41048 3.41447,3.03578 10.15251,9.47056 14.97348,14.29954 10.25878,10.27587 23.55321,23.05647 37.53786,36.087 l 9.9823,9.30125 0.5872,-5.02732 c 0.3229,-2.76503 1.01472,-5.4487 1.53728,-5.96373 1.57563,-1.55296 4.2428,-1.05609 5.02678,0.93643 0.46477,1.18122 1.56653,1.87284 2.98353,1.87284 1.23565,0 2.78875,0.7585 3.45132,1.68556 1.6513,2.31042 6.33693,2.41257 7.93658,0.17307 1.52421,-2.13397 7.96681,-3.23654 10.2199,-1.749 0.84483,0.55778 2.46581,5.3356 3.60221,10.61741 1.81293,8.42621 2.24273,9.39276 3.50693,7.88594 0.88246,-1.05179 1.19973,-3.20745 0.81868,-5.56247 -0.73612,-4.54971 1.26478,-8.99409 4.55498,-10.11733 4.5808,-1.56386 5.61692,-0.45023 4.86987,5.2341 l -0.68979,5.24859 6.91854,4.18788 c 6.88525,4.1677 6.94963,4.1866 13.37767,3.92745 3.67234,-0.14801 9.30675,-1.09494 13.05922,-2.19466 z M 301.8832,-539.14531 c -0.6555,-0.51505 -1.38162,-1.58937 -1.61359,-2.38739 -0.26165,-0.90056 -1.85859,-1.68846 -4.20961,-2.07707 -4.65324,-0.76917 -6.63975,-2.9513 -5.67449,-6.23343 l 0.73141,-2.48686 -3.54347,0.8532 c -6.80477,1.63845 -7.9498,-1.07523 -9.03375,-21.40958 -0.43463,-8.15396 -1.222,-14.99557 -1.74967,-15.2036 -0.52764,-0.20809 -0.64593,-4.49277 -0.26266,-9.52165 0.77836,-10.21734 0.34929,-12.62959 -9.12786,-51.31581 -3.25968,-13.30619 -5.63155,-24.68373 -5.27078,-25.28344 0.77411,-1.28679 4.93375,-1.45663 6.10357,-0.24918 0.44826,0.46266 1.46167,2.40105 2.25198,4.30755 l 1.437,3.46636 1.5187,-2.04573 c 1.71383,-2.30855 5.68411,-3.46803 7.04953,-2.05874 0.49309,0.50891 1.42271,0.71784 2.06589,0.46427 1.36482,-0.53808 3.68639,2.72907 4.05055,5.70034 0.19474,1.5883 0.85677,2.06013 2.89097,2.06013 1.45121,0 3.11822,0.58995 3.70449,1.31099 0.9712,1.19448 5.69546,13.52047 10.26482,26.7817 0.99378,2.8842 2.35608,6.15163 3.02738,7.26099 0.67125,1.10934 1.5653,4.48046 1.98679,7.4914 l 0.76632,5.47436 12.4041,-13.10993 c 6.82227,-7.21044 14.16291,-15.63826 16.3126,-18.72846 8.7385,-12.56173 21.25213,-23.97245 26.28954,-23.97245 1.40053,0 4.07237,1.03133 5.93742,2.29182 2.38719,1.61341 3.75926,2.05693 4.63501,1.49829 1.83497,-1.17052 6.75258,-0.96434 9.08269,0.38079 1.87395,1.08182 2.29762,0.96377 5.37719,-1.49825 3.20467,-2.56201 7.45334,-3.60214 7.45334,-1.82464 0,0.46639 -1.14183,2.02653 -2.5374,3.46698 -2.05176,2.11767 -2.27655,2.88547 -1.17441,4.01122 2.04077,2.08453 1.8022,2.76779 -3.23956,9.27856 -2.55248,3.29622 -7.75607,10.20701 -11.56347,15.35734 -3.80741,5.15034 -10.02777,12.56681 -13.82298,16.48105 -9.13579,9.42237 -42.13688,40.77537 -46.91682,44.57377 l -3.77086,2.99655 -0.67061,11.88843 c -0.39106,6.93284 -1.19956,12.22582 -1.9396,12.69789 -0.69795,0.44522 -1.26899,2.18406 -1.26899,3.8641 0,4.7571 -4.71654,7.98911 -7.95054,5.44813 z m 0.53938,-31.08927 c -0.2953,-0.72105 -0.53708,-0.13102 -0.53708,1.31099 0,1.4421 0.24169,2.03204 0.53708,1.31099 0.29527,-0.72104 0.29527,-1.90093 0,-2.62198 z m 2.47322,-26.49504 c 1.1636,-0.97651 1.09916,-1.39403 -0.33225,-2.15185 -1.52393,-0.80678 -1.77607,-0.59047 -1.77607,1.52372 0,1.3552 0.14955,2.32354 0.33225,2.15188 0.18282,-0.17159 0.98199,-0.85736 1.77607,-1.52375 z M 179.94741,-814.36266 c -4.74632,-6.84612 -6.94341,-13.82611 -5.67194,-18.01954 1.14674,-3.7821 2.77641,-4.5346 8.00678,-3.69719 5.43263,0.86976 14.49895,11.69944 9.79451,11.69944 -0.9824,0 -3.93659,-1.60128 -6.56493,-3.5584 l -4.77877,-3.55842 -0.0409,2.36877 c -0.0232,1.30283 1.24448,5.8386 2.81567,10.07947 1.57116,4.2409 2.59693,7.97881 2.27948,8.30646 -1.36278,1.40658 -3.10213,0.32823 -5.83979,-3.62059 z m 97.39892,432.64812 c 0.54046,-0.2572 -1.20491,-1.94669 -3.87862,-3.75439 l -4.86122,-3.28676 3.22635,4.28661 c 1.77448,2.35764 3.51988,4.04712 3.8786,3.75442 0.35873,-0.29272 1.09444,-0.74267 1.63489,-0.99988 z m -69.68435,-544.25992 c 0,-0.9951 -3.66695,-0.019 -4.74219,1.2631 -1.27162,1.5157 -1.23197,1.5224 1.72029,0.2884 1.66206,-0.6947 3.0219,-1.3928 3.0219,-1.5515 z"
       id="path5320"
       inkscape:connector-curvature="0"
       sodipodi:nodetypes="cccsssccscccscscccccccscscccccccccccsccccccccccccsscccccccccscccccccccccccccccccsscccccccccccccccscccccccccscccscscccscccccccccccscccscccscccccscccccscccssscscscccccscccccscscccscccsscsscccccccccccccscccccscccscccccccscsccccccssccccscccsccccscccscsccssccsccccccccccccccccccccsccccsccccccccscccccccscccsccccccsscscsccccsssccccsccccsccscccccccsccccccsccccsscccccsscccscccccccccsccscccccccscccscccccccccccscccccsscscccscsccccccssccccccccsccccccssccscccscsccscccscccccccccccsscccccccccccccccccccccccccccsccccccccccccccccccccccccscccscccccccccssscccccsccccccccscsccccsccccsccsccccscccsccscccscscccscccccscccccccccscccccccscsccccccscccccsccsccscccsccccccscccscsccccccccscccssccccccccccccccccssccccscccscsccccccccccccccccsccccccscsccccccsscsccscccsccccsscccsccccscccccsccccccccccsccsccs" />
    <path
       style="fill:#060503;stroke-width:0.93796569"
       d="m 533.75039,253.13142 c -1.56475,-0.99815 -0.69706,-17.43104 1.63499,-30.96437 1.94124,-11.26526 2.58523,-22.06126 3.441,-57.6837 0.57907,-24.10356 1.63357,-55.28645 2.34334,-69.295356 1.85117,-36.536767 2.05453,-84.27227 0.40707,-95.54860717 -1.30125,-8.90636303 -1.77828,-10.04197883 -9.12544,-21.72502883 -4.44985,-7.07591 -10.92466,-15.67828 -15.19898,-20.19334 l -7.44663,-7.86595 -8.19459,-0.47473 c -10.12743,-0.58666 -13.1329,-1.56922 -18.47278,-6.03911 -5.46,-4.57042 -6.54152,-6.52096 -6.54152,-11.79736 0,-2.395 -0.86984,-5.65989 -1.93298,-7.25533 -1.45283,-2.18022 -2.20472,-6.99449 -3.02694,-19.3818 -0.93313,-14.057748 -1.4189,-16.811498 -3.30367,-18.728468 -4.95545,-5.04006 -5.98508,-6.61198 -6.63941,-10.13608 -0.3923,-2.11317 -0.048,-5.13864 0.8065,-7.08527 1.28693,-2.93214 1.20993,-3.96774 -0.56212,-7.56151 -1.51087,-3.06413 -1.85595,-5.38691 -1.30644,-8.79362 0.41069,-2.54625 0.72234,-6.82084 0.69255,-9.499 -0.0334,-2.90404 0.64026,-5.70028 1.66637,-6.92804 1.42228,-1.70183 1.48963,-2.87063 0.38843,-6.74225 -0.73267,-2.57598 -1.88985,-4.92484 -2.57153,-5.2197 -0.78357,-0.33891 -1.2394,-4.97638 -1.2394,-12.60913 0,-10.78917 0.22603,-12.17845 2.12712,-13.06454 1.92628,-0.89791 2.00076,-1.44021 0.78939,-5.74476 -0.73572,-2.61435 -2.41749,-7.11307 -3.73738,-9.99726 -3.85022,-8.41374 -3.89556,-9.48904 -0.48612,-11.53218 l 2.99181,-1.79291 4.1729,2.03033 c 2.2951,1.11666 4.99685,2.83249 6.0039,3.81288 1.04297,1.01539 4.31775,2.30945 7.60873,3.00674 6.48145,1.37326 9.03936,3.20489 10.04535,7.19309 0.58407,2.31544 1.05798,2.65997 3.2008,2.32645 1.38329,-0.21523 3.0509,-0.65497 3.7057,-0.97718 0.95851,-0.47166 6.31406,-1.06572 12.60852,-1.39864 1.46827,-0.0776 0.98734,-2.66387 -0.78258,-4.20784 -1.27914,-1.11592 -3.65258,-1.55625 -10.27587,-1.90655 -4.73693,-0.2506 -10.46222,-0.89246 -12.72292,-1.42651 -2.26069,-0.53406 -5.46586,-1.27257 -7.12259,-1.64123 -4.38506,-0.97567 -10.29736,-8.01899 -13.57223,-16.16873 -1.53613,-3.82263 -2.79293,-7.7673 -2.79293,-8.76583 0,-0.99852 -0.79269,-3.75685 -1.7616,-6.12968 -2.27232,-5.56512 -2.29549,-15.72839 -0.0417,-18.23305 0.92696,-1.03007 2.56814,-3.14684 3.64705,-4.704 3.35386,-4.84026 9.2761,-5.67211 14.5828,-2.0483 4.28303,2.92479 5.37402,2.02156 6.3222,-5.23393 0.40387,-3.0902 1.07812,-8.25963 1.49834,-11.48759 0.59308,-4.55552 1.25069,-6.06286 2.93828,-6.73513 1.74274,-0.69431 2.17416,-1.80401 2.17416,-5.59256 0,-4.98394 1.78736,-8.12621 6.48128,-11.39425 1.47947,-1.03006 3.86313,-3.48454 5.29703,-5.45439 1.87281,-2.57278 4.03294,-4.11458 7.66931,-5.47396 5.10899,-1.90994 13.43525,-7.19317 13.43525,-8.52506 0,-1.50652 4.66566,-2.37281 8.55299,-1.58802 2.07794,0.41952 5.26685,0.95508 7.08646,1.19016 1.97583,0.25531 4.09105,1.29735 5.25155,2.58722 1.09539,1.2175 3.49486,2.44204 5.49954,2.80672 3.21948,0.58569 3.58981,0.97449 3.90942,4.10476 0.33523,3.28325 0.55583,3.48207 4.37022,3.93853 2.20938,0.26444 4.77483,1.17083 5.70092,2.0142 l 1.6838,1.53349 0.77788,-1.56337 c 0.55846,-1.12244 1.76089,-1.56339 4.26321,-1.56339 7.14737,0 13.65306,4.80034 12.2051,9.0057 -0.5435,1.57844 -0.0426,2.75728 1.87516,4.41183 1.90244,1.64143 2.80868,3.74817 3.31977,7.71733 0.48729,3.78495 1.50769,6.26385 3.32657,8.08156 6.20663,6.20272 8.48956,10.07127 8.50115,14.4058 0.008,2.36075 0.86158,5.6476 1.90059,7.30409 1.55252,2.47509 2.45409,3.01169 5.06026,3.01169 5.29641,0 7.56737,1.61215 7.34606,5.21491 -0.24535,3.99171 0.46829,4.74841 3.50104,3.7131 6.25292,-2.13475 12.39353,2.22801 11.03126,7.83742 -0.41233,1.6977 -1.0376,6.33892 -1.38952,10.31377 -0.51336,5.79849 -0.27663,7.58046 1.19687,9.01514 1.01022,0.98346 2.34842,4.09307 2.97386,6.91028 0.78508,3.53631 1.88556,5.56692 3.55432,6.55871 1.32943,0.79004 2.41715,2.18546 2.41715,3.10083 0,0.91545 2.41843,3.964 5.37425,6.77469 7.10734,6.75821 7.43167,8.48954 2.94091,15.69925 -4.79016,7.69043 -6.56587,9.29937 -12.31129,11.15506 -2.64648,0.85476 -6.72447,2.64872 -9.0622,3.98669 -2.33777,1.33788 -6.05773,2.81302 -8.26664,3.27808 -2.40643,0.50657 -4.9392,1.81666 -6.31905,3.26857 -4.20502,4.42449 -4.25365,4.91082 -0.54324,5.43066 3.98538,0.55841 6.99387,-0.34102 13.73537,-4.10619 3.23127,-1.80466 7.0892,-3.08203 11.21571,-3.71355 9.23448,-1.4131 10.52599,-1.05576 12.02719,3.32782 l 1.28185,3.74308 1.72449,-2.24742 c 1.3162,-1.71538 2.64577,-2.30391 5.61616,-2.48609 6.10802,-0.37465 8.82142,1.27331 10.62223,6.45128 1.48679,4.27511 1.42774,4.72781 -1.02558,7.86139 -2.08118,2.65817 -2.34213,3.63625 -1.30124,4.87689 1.85663,2.21304 1.60899,8.49021 -0.45956,11.64828 -0.96887,1.47919 -1.7616,4.22395 -1.7616,6.09949 0,4.31115 -4.60586,9.37316 -8.52904,9.37383 -2.37619,3.7e-4 -2.83329,0.66343 -4.7766,6.92953 -1.18191,3.81103 -2.94682,7.49469 -3.92201,8.186 -1.93532,1.37189 -2.94959,6.8478 -2.88927,15.598708 0.0602,8.75527 -1.68838,13.11046 -6.49558,16.17699 -3.77656,2.40901 -4.04777,2.87654 -3.3475,5.77031 0.4191,1.73186 1.57124,4.77021 2.56032,6.75184 1.05718,2.11804 1.4967,4.62862 1.06647,6.09146 -0.78327,2.66342 -9.44123,10.37753 -16.39996,14.61226 -3.60291,2.19251 -4.24234,3.07275 -4.24234,5.83984 0,2.46055 -0.70577,3.70846 -2.8826,5.09707 -3.66609,2.33858 -7.4018,2.32869 -12.85992,-0.0337 -5.36954,-2.32443 -6.26506,-2.30637 -10.82372,0.2177 l -3.66566,2.02972 -1.52664,20.80928 c -1.18795,16.1926308 -1.22626,23.3391928 -0.17274,32.212966 3.2109,27.045711 3.8202,80.391659 1.18695,103.922346 -1.8587,16.6095 -1.45298,40.73418 0.87185,51.84046 1.38952,6.6379 1.73377,11.93737 1.23123,18.95314 -0.82435,11.50797 0.84379,28.28651 3.38889,34.08583 1.64844,3.7562 5.22742,17.5264 5.25711,20.22674 0.008,0.61806 -1.28591,1.50774 -2.87268,1.97706 -2.69555,0.7973 -3.03777,0.64972 -5.20907,-2.24741 -4.63417,-6.18318 -7.89684,-25.69336 -10.10238,-60.40988 -0.40574,-6.38641 -1.15414,-18.18535 -1.66314,-26.21986 -0.509,-8.03451 -0.58713,-44.10554 -0.1737,-80.157861 0.60038,-52.345929 0.41576,-69.0957752 -0.9166,-83.1544132 -0.91759,-9.6826178 -1.76657,-21.5017078 -1.88661,-26.2646578 -0.11976,-4.76287 -0.60691,-9.06106 -1.08205,-9.55152 -1.24865,-1.28874 -3.03541,-1.09517 -3.8715,0.41937 -0.39804,0.72104 -1.47359,2.49088 -2.39007,3.93298 -0.91652,1.44209 -1.90385,5.12763 -2.1941,8.19003 -0.29029,3.06241 -0.74879,5.70904 -1.01904,5.88142 -2.18052,1.39092 -4.9495,-23.12195 -3.19733,-28.30508 1.24736,-3.68989 3.074,-3.25907 3.48953,0.82292 l 0.35065,3.44499 5.57464,-0.34169 c 4.77839,-0.29291 6.11287,-0.0532 9.34307,1.681 l 3.76843,2.02275 5.19523,-1.94215 c 5.89551,-2.20389 8.79955,-2.39701 13.37126,-0.88892 3.78084,1.24716 6.39333,0.39464 7.82773,-2.55434 0.50027,-1.02849 4.16058,-3.89268 8.13401,-6.36484 3.97345,-2.47215 8.66563,-6.30078 10.42706,-8.50804 l 3.20261,-4.01321 -4.11941,-5.8199 c -5.91004,-8.34976 -5.59041,-9.67611 3.82866,-15.88617 l 5.32779,-3.51263 -0.75105,-6.23276 c -0.41309,-3.428068 -0.40597,-9.095298 0.0171,-12.593858 0.68977,-5.72139 1.10505,-6.56282 4.1296,-8.36758 2.33934,-1.39579 4.00975,-3.57855 5.48878,-7.17217 2.46642,-5.99267 5.76567,-9.92272 8.33475,-9.92826 1.22292,0 2.41214,-1.50713 3.70081,-4.68212 1.0444,-2.573 2.4557,-5.76246 3.13623,-7.08761 1.0346,-2.01467 0.86784,-2.70903 -1.0181,-4.2384 -1.24045,-1.00603 -2.25542,-2.38855 -2.25542,-3.07236 0,-0.97141 -0.57793,-1.10941 -2.64237,-0.63101 -1.45329,0.33681 -4.84699,0.60418 -7.54155,0.59429 -6.01034,-0.0225 -9.33427,-1.76092 -11.02549,-5.7674 l -1.23493,-2.92545 -2.48045,2.01151 c -2.72192,2.20733 -8.68049,4.07741 -12.99192,4.07741 -5.4766,0 -15.37224,-2.4138 -18.76299,-4.57679 -3.3768,-2.15399 -3.43767,-2.33259 -3.03635,-8.91348 l 0.40949,-6.71535 6.31437,-3.56897 c 7.39312,-4.1787 17.76057,-8.72896 23.76422,-10.43012 2.33315,-0.66112 5.07991,-2.10679 6.10393,-3.21261 4.07192,-4.39721 1.48246,-15.51008 -4.23292,-18.16586 -2.36626,-1.09959 -3.17712,-2.12029 -3.17712,-3.99957 0,-1.38779 -1.92963,-5.32069 -4.28807,-8.73991 -3.9248,-5.68994 -4.35503,-7.01007 -5.07779,-15.58089 -0.82592,-9.79402 -2.41431,-13.47813 -6.91348,-16.03532 -1.38096,-0.78487 -2.51085,-2.08606 -2.51085,-2.89153 0,-0.80539 -2.59095,-3.27276 -5.75766,-5.48302 -6.68904,-4.6687 -11.40617,-11.84096 -12.1537,-18.47938 -0.47031,-4.17652 -0.73852,-4.47528 -8.74655,-9.74352 -5.1666,-3.39892 -8.51816,-6.27501 -8.94687,-7.67762 -0.37699,-1.23346 -1.2639,-4.13945 -1.97088,-6.45774 -1.24506,-4.08257 -1.4222,-4.22949 -5.63624,-4.67387 -2.39297,-0.25239 -5.83037,-0.46252 -7.63872,-0.4671 -8.01278,-0.0202 -11.51521,-2.84148 -15.61223,-12.57661 -1.08849,-2.58641 -2.45284,-4.88926 -3.0319,-5.11751 -1.66112,-0.6549 -12.80843,4.08692 -18.2367,7.75748 -3.88917,2.62985 -5.08104,4.07756 -5.61534,6.82068 -1.14914,5.89992 -4.14244,12.29696 -7.58859,16.21766 -2.81259,3.19995 -3.39323,4.87675 -3.98481,11.5082 -0.82813,9.28273 -3.01881,12.71161 -10.75816,16.83832 -4.89107,2.60797 -5.84689,2.82649 -11.40733,2.60737 -6.06138,-0.2389 -6.07018,-0.23598 -7.088,2.38278 -2.50193,6.43706 -3.23847,10.57605 -2.11944,11.90981 0.63484,0.75671 1.79514,4.53882 2.57844,8.40475 1.09153,5.38728 2.15999,7.72893 4.57449,10.02557 1.73271,1.64811 4.03096,4.09217 5.10725,5.43126 1.08125,1.34523 2.87747,2.4347 4.01422,2.4347 1.13151,0 3.09973,0.45795 4.37376,1.01755 1.27406,0.55969 5.71802,1.25781 9.87544,1.55133 4.15743,0.2935 9.06916,1.03186 10.91504,1.64076 4.70587,1.55236 7.94013,5.27498 7.94537,9.14518 0.003,2.6118 -0.68663,3.68232 -3.55277,5.5106 -3.05539,1.94903 -4.13148,2.20036 -7.62872,1.78182 -3.16723,-0.37899 -5.20416,-0.0637 -9.17071,1.41901 -2.80452,1.04843 -6.53,1.90619 -8.27889,1.90619 -4.472,0 -8.94048,-3.06428 -8.96291,-6.14631 -0.0232,-3.33591 -1.15036,-4.26387 -7.56906,-6.23718 -4.58764,-1.4104 -5.36242,-1.48509 -4.7413,-0.45705 1.61658,2.6757 5.26055,15.65356 5.27096,18.7723 0.008,1.82033 -0.54921,5.36204 -1.23401,7.87045 -1.09856,4.02415 -0.90331,5.39725 1.6601,11.673 1.59781,3.91179 4.58105,9.13501 6.62942,11.60716 4.578,5.52513 4.24137,7.89503 -1.87662,13.21152 -6.58364,5.7211 -6.65361,8.81811 -0.46698,20.67016 4.65771,8.92292 5.05238,10.32643 5.85077,20.80546 0.70252,9.22025 1.34247,11.97656 3.56563,15.357348 2.38813,3.6316 2.80346,5.85272 3.50199,18.72847 0.7035,12.96819 1.09774,15.05401 3.51201,18.57954 2.12218,3.09889 3.62223,4.21188 6.8287,5.06649 2.26004,0.60239 4.27947,0.98655 4.48762,0.8538 0.85459,-0.54514 -3.85508,-7.04055 -6.1606,-8.49651 -3.63574,-2.29596 -4.72217,-7.953 -1.98754,-10.34911 2.14821,-1.88237 5.06025,-2.54439 5.06025,-1.15039 0,0.41697 2.67689,2.52392 5.94868,4.68212 6.43675,4.24597 14.9309,11.82965 23.36913,20.86412 2.92966,3.13671 7.85015,8.36195 10.93446,11.61164 6.94422,7.31669 8.72573,11.04021 10.32652,21.58344 2.14955,14.1570778 0.0903,122.568192 -3.73624,196.706032 -2.89232,56.03598 -2.98668,57.14102 -4.95676,58.05993 -1.10004,0.51309 -2.3468,2.95767 -3.08481,6.04832 -1.88422,7.89091 -2.24058,8.55823 -4.57037,8.55823 -1.17185,0 -2.48297,-0.22473 -2.91359,-0.49945 z m 124.20692,-418.7767 c 0.41579,-0.69124 0.0489,-1.70767 -0.81482,-2.25873 -1.31145,-0.83656 -2.00295,-0.62913 -4.18866,1.25668 l -2.61789,2.25872 h 3.43269 c 2.12938,0 3.71973,-0.47712 4.18868,-1.25667 z M 572.5786,-323.65867 c -0.39025,-0.24894 -1.40314,-0.27553 -2.25089,-0.0592 -0.93686,0.23912 -0.65859,0.41668 0.70951,0.45263 1.23799,0.0322 1.93162,-0.14459 1.54138,-0.39352 z m -215.75697,497.9101 c -3.20127,-7.58368 -10.52375,-30.12384 -11.20447,-34.48967 -0.41758,-2.67817 -1.46073,-5.88075 -2.3181,-7.11682 -0.92943,-1.33998 -2.08514,-8.14562 -2.86232,-16.85563 -0.71685,-8.03451 -1.83383,-19.091116 -2.48215,-24.570324 -0.64827,-5.479209 -0.92435,-10.224691 -0.61342,-10.545558 0.31093,-0.320931 0.86689,-10.049164 1.23556,-21.618414 0.62044,-19.470869 0.51549,-21.134257 -1.41169,-22.370111 -1.74862,-1.121462 -2.08631,-2.721921 -2.10926,-9.996735 -0.0171,-4.763774 -0.76018,-13.549599 -1.65598,-19.5239802 -2.454,-16.366512 -2.1789,-58.6503798 0.4752,-73.0410398 1.75951,-9.54013 2.15691,-20.23109 2.63153,-70.793618 0.30759,-32.7561 0.51854,-79.68515 0.46905,-104.28686 -0.10817,-53.75597 1.00541,-72.96516 4.6378,-80.00129 1.38257,-2.67818 2.65251,-6.55496 2.82207,-8.61511 0.31392,-3.81198 9.03506,-19.73673 16.45511,-30.04638 2.79667,-3.88576 3.53118,-5.66813 2.7178,-6.59526 -0.77816,-0.887 -0.55064,-1.8194 0.75389,-3.08943 1.82145,-1.77329 1.76762,-1.84587 -2.1401,-2.8874 -2.20468,-0.58763 -5.20126,-2.09749 -6.65905,-3.35529 -2.93638,-2.53349 -4.99976,-2.43328 -3.96653,0.19261 0.38227,0.97155 -0.58298,3.75497 -2.25718,6.50906 -2.54661,4.18922 -2.98962,6.30599 -3.42458,16.36351 -0.46323,10.71127 -0.68323,11.64673 -3.02328,12.85546 -1.38805,0.71693 -2.52368,2.00807 -2.52368,2.86905 0,2.38818 -2.27128,1.86678 -4.11239,-0.94407 -2.70777,-4.1339 -4.3808,-17.8708 -4.21076,-34.57284 0.0972,-9.5652 -0.3905,-17.54983 -1.24471,-20.36959 -1.09715,-3.62196 -1.09297,-4.87745 0.0201,-5.73231 1.85707,-1.42741 7.2291,-2.27175 8.65726,-1.36071 1.25843,0.80275 3.7171,8.55487 5.00731,15.78793 0.71219,3.99251 1.07373,4.56333 2.13517,3.37112 0.70281,-0.78938 1.30136,-4.07686 1.33011,-7.30548 0.0486,-5.46206 0.27796,-5.9941 3.29744,-7.65133 5.23293,-2.87202 6.6982,-1.83064 5.90594,4.19744 l -0.67831,5.16116 6.92025,4.21456 6.92024,4.21454 6.45915,-0.30007 c 12.70013,-0.59007 27.95184,-6.88096 32.05679,-13.22252 0.97182,-1.50136 2.66893,-4.35278 3.77136,-6.33646 1.10239,-1.98368 4.59308,-5.49378 7.75711,-7.80022 9.03848,-6.58872 11.87758,-11.0066 12.89045,-20.0588 0.96517,-8.62611 1.79435,-9.95656 10.50375,-16.85373 6.49217,-5.14127 11.67391,-11.31147 11.69307,-13.92359 0.008,-0.85954 -2.64364,-3.67315 -5.88878,-6.25251 -9.82157,-7.80653 -11.86063,-11.56883 -8.80141,-16.2394 1.03015,-1.57272 2.60663,-3.37746 3.50326,-4.01058 1.01556,-0.71708 2.1326,-4.63822 2.96244,-10.39889 0.73272,-5.08627 1.788,-10.01253 2.3451,-10.94725 0.55711,-0.93472 0.72188,-3.08366 0.36618,-4.7754 -0.44731,-2.1273 0.26666,-4.98907 2.31525,-9.2795 1.6291,-3.41198 3.22637,-8.933 3.54948,-12.26895 0.6561,-6.77341 2.13224,-9.07675 9.84089,-15.35569 5.86844,-4.77999 6.90375,-6.62737 8.00855,-14.29015 0.71704,-4.97308 0.45195,-6.07662 -2.80834,-11.6908 -1.98008,-3.40965 -4.72068,-9.81478 -6.09026,-14.23365 -1.36961,-4.41884 -3.75612,-10.52137 -5.30331,-13.56113 -3.21061,-6.30773 -3.38291,-7.95416 -1.10692,-10.57748 1.22106,-1.40742 1.46437,-3.81925 0.98245,-9.7388 -0.72402,-8.89344 0.3016,-11.34093 6.70048,-15.98987 2.09604,-1.52286 6.472,-6.04937 9.72426,-10.05889 3.25228,-4.00955 7.41534,-9.14419 9.25123,-11.41034 4.12276,-5.0889 5.69261,-10.24972 5.69261,-18.71461 0,-9.32851 -2.17107,-10.19063 -19.74641,-7.84133 -2.52365,0.33732 -5.41415,0.1176 -8.22073,-0.62464 -2.38068,-0.62969 -6.07394,-1.56218 -8.20723,-2.07218 -4.86823,-1.16384 -7.9178,-4.80549 -9.07261,-10.83399 -0.47273,-2.46786 -2.20452,-6.84679 -3.84843,-9.73096 -2.95257,-5.18024 -2.98554,-5.48531 -2.71155,-25.09617 0.22937,-16.41898 -0.0397,-20.41907 -1.55597,-23.1302 -2.90246,-5.18966 -2.30584,-7.1746 4.63896,-15.4336 9.24157,-10.99035 11.45574,-15.41807 9.80345,-19.60391 -0.72283,-1.83109 -1.0465,-6.05868 -0.72473,-9.46569 0.46288,-4.90125 0.16283,-6.69146 -1.47085,-8.77875 -4.79364,-6.12426 -9.62056,-14.87306 -10.12627,-18.35392 -0.29928,-2.06013 -0.96829,-9.13948 -1.48668,-15.7319 l -0.94255,-11.98623 -6.51845,-4.36478 c -8.05821,-5.39577 -13.37855,-11.61964 -14.4863,-16.94638 -0.46374,-2.23012 -1.55197,-4.92113 -2.41819,-5.98001 -0.86627,-1.05888 -1.57828,-2.67598 -1.58225,-3.59354 -0.003,-0.95827 -1.28234,-2.20124 -3.00322,-2.9205 -5.10793,-2.13496 -6.82422,-5.25635 -7.77461,-14.13969 -0.48489,-4.53227 -0.90106,-9.05383 -0.92482,-10.04783 -0.0232,-0.9941 -2.74032,-5.0275 -6.03688,-8.9631 -4.98838,-5.9555 -6.12789,-8.0519 -6.79386,-12.4993 -0.63729,-4.256 -1.44341,-5.8312 -3.96065,-7.7396 -3.0594,-2.3193 -7.91922,-10.7138 -7.91922,-13.6791 0,-0.8004 -1.32117,-2.2362 -2.93596,-3.1908 -2.61878,-1.5482 -2.93706,-2.3335 -2.94601,-7.2684 -0.0125,-6.4226 -1.71274,-20.056 -3.61234,-28.9518 l -1.32156,-6.18894 -9.94671,-6.921 c -5.47071,-3.8065 -10.97424,-8.1842 -12.23006,-9.7281 -2.15654,-2.6513 -7.03275,-15.3501 -7.36882,-19.1901 -0.12196,-1.3908 -1.79201,-2.2962 -7.78845,-4.2219 -4.19843,-1.3484 -9.90779,-2.8859 -12.6875,-3.4169 l -5.05393,-0.9653 -6.68992,4.5631 c -7.63899,5.2105 -13.27254,6.6458 -23.12282,5.8912 -22.46503,-1.7209 -22.47536,-1.7186 -24.05589,5.4142 -0.80157,3.6175 -2.42891,6.1892 -6.97922,11.0291 -5.86513,6.2385 -5.94092,6.399 -6.54023,13.8507 -0.34388,4.2755 -1.32494,8.42544 -2.26634,9.58674 -0.91297,1.1262 -2.31401,4.7731 -3.11336,8.1041 -1.29083,5.3789 -1.15236,7.6177 1.23804,20.0155 4.09511,21.2388 2.78938,28.8106 -6.20685,35.9925 -2.10424,1.6799 -4.48398,4.691 -5.28834,6.6915 -0.80428,2.0004 -3.035,5.0952 -4.95707,6.8772 -1.92203,1.782 -3.49465,3.9735 -3.49465,4.8698 0,2.9668 -3.63886,10.76907 -7.10119,15.22604 -4.07892,5.2507 -4.44701,6.44118 -5.64902,18.27035 -0.851,8.37494 -1.28362,9.61202 -4.95421,14.16741 -5.53734,6.87213 -11.04899,9.61851 -19.30322,9.61851 -7.57411,0 -10.85852,-1.63785 -14.69631,-7.32862 -2.31346,-3.43044 -2.70107,-3.66569 -3.89062,-2.361 -0.72661,0.79698 -1.64362,4.65164 -2.03776,8.5659 -0.54824,5.44481 -1.49367,8.26082 -4.02422,11.98622 -4.50173,6.62729 -5.08538,12.59833 -1.75781,17.98353 2.65137,4.29084 8.4296,28.90905 7.38404,31.45958 -0.37042,0.90357 0.73203,2.31145 3.04738,3.89172 1.99529,1.36182 6.80115,6.39232 10.67971,11.17891 7.04946,8.69991 7.05355,8.70304 11.89015,9.11686 2.66104,0.22769 7.48967,1.46535 10.73033,2.75039 4.74222,1.88051 7.06578,2.31896 11.90662,2.24682 6.96233,-0.10387 24.32995,2.22764 29.56324,3.96847 4.84672,1.61226 13.20893,7.51314 15.45223,10.90403 2.56853,3.88254 2.4835,11.8032 -0.16454,15.3189 -1.16654,1.54886 -4.76993,4.16147 -8.00749,5.80584 -6.42989,3.26574 -9.86994,3.65457 -18.82141,2.12734 -4.93646,-0.8422 -5.22621,-0.78774 -12.37877,2.32666 -12.04705,5.24557 -20.97728,6.2415 -29.81764,3.32534 -5.02739,-1.65838 -7.02264,-4.30206 -8.02267,-10.6299 -1.36511,-8.63796 -3.43841,-10.87841 -11.54204,-12.47246 -3.63939,-0.71592 -8.59886,-2.2981 -11.02103,-3.51597 -5.11009,-2.56934 -5.41252,-2.00082 -2.15181,4.04481 1.23868,2.29663 2.61226,6.14193 3.0524,8.54512 0.44014,2.40317 1.87209,7.57199 3.18215,11.48623 2.03254,6.07307 2.27519,8.7099 1.65465,17.97934 -0.90707,13.54972 -3.07809,20.34227 -7.66578,23.98386 -4.69162,3.7241 -6.31511,7.68131 -4.23356,10.31927 0.88102,1.11654 2.42935,3.55783 3.44079,5.42509 1.01141,1.86723 4.66923,5.57547 8.12845,8.24052 14.09492,10.85889 13.89389,15.29001 -1.16207,25.61347 -2.83776,1.94574 -5.68046,4.41177 -6.31716,5.48002 -1.84865,3.10164 -1.34771,8.66857 1.1954,13.28414 1.87224,3.39798 2.62431,7.75781 3.68055,21.33695 l 1.3275,17.06635 -3.2283,4.85693 c -7.09862,10.67971 -7.94836,12.80636 -7.14342,17.87759 0.97536,6.14465 3.07756,9.26869 8.99066,13.36079 2.62728,1.81815 6.62273,5.89671 8.8788,9.06344 2.25609,3.16676 4.93161,6.844 5.94561,8.17164 1.55896,2.04114 1.69136,3.94981 0.85737,12.36077 -0.54244,5.4708 -0.83667,19.89172 -0.65387,32.0465 l 0.33256,22.0996 4.54439,4.94404 c 7.83825,8.52751 9.48129,12.06001 10.41849,22.39953 0.72998,8.05338 1.28957,9.91103 3.9974,13.2703 3.47563,4.31184 4.58176,4.82949 13.13403,6.14664 3.22957,0.4974 9.17476,2.05652 13.21154,3.46477 6.33915,2.21142 8.0599,2.49742 12.62466,2.09833 2.90679,-0.25416 5.28507,-0.58366 5.28507,-0.73223 0,-0.14865 -5.34572,-6.25504 -11.87939,-13.56995 -6.53369,-7.31492 -13.13964,-14.96423 -14.67986,-16.99846 -3.19725,-4.22272 -3.60704,-8.04062 -1.03885,-9.67886 0.96889,-0.61804 1.76159,-1.44363 1.76159,-1.83464 0,-1.1667 3.1046,-2.44969 4.84228,-2.00109 0.88927,0.22958 3.38741,2.27928 5.5514,4.55486 2.16397,2.27561 5.20272,4.44504 6.75272,4.82095 1.55001,0.37591 2.81818,0.99495 2.81818,1.37564 0,0.38068 3.19868,2.94365 7.10816,5.69551 11.50426,8.09778 37.71415,34.09809 46.64948,46.27644 2.64516,3.60522 5.53854,6.55495 6.42967,6.55495 0.89113,0 2.56201,1.26417 3.71305,2.80928 1.15101,1.54509 5.17478,6.04917 8.94169,10.00907 9.29049,9.76645 12.58466,15.06872 14.72245,23.69724 0.99602,4.01996 2.25696,8.57621 2.80214,10.12499 0.54518,1.54877 0.53282,8.62812 -0.0267,15.73191 -0.6622,8.39664 -0.57189,17.04411 0.25799,24.71372 1.48761,13.74632 0.74782,65.86691 -1.19894,84.4666 -0.71156,6.79843 -1.89631,18.26026 -2.63282,25.47072 -0.73645,7.21047 -1.74917,45.30417 -2.25046,84.652698 -0.85404,67.04012 -1.69908,87.15802 -4.6257,110.123397 -1.17636,9.230964 -2.35879,39.382305 -2.92324,74.53932 -0.27929,17.403905 -3.27528,46.181565 -7.13588,68.546185 -2.99997,17.37883 -3.27324,18.30828 -5.46206,18.57723 -3.98138,0.48911 -4.67248,-2.53658 -5.34382,-23.39493 -0.6312,-19.61194 -0.74853,-20.42078 -3.05791,-21.08549 -1.32079,-0.3802 -2.86234,-1.70257 -3.42566,-2.93864 -2.15899,-4.73741 -2.3271,-25.90627 -0.31526,-39.704355 1.08134,-7.416478 2.41201,-17.19274 2.95703,-21.725031 0.54501,-4.532288 1.80902,-12.285876 2.8089,-17.230192 2.10227,-10.395202 3.69787,-25.415884 5.45121,-51.3160112 0.68334,-10.0946428 1.77478,-23.0734728 2.42536,-28.8418428 2.16121,-19.16185 2.71997,-53.55429 1.0942,-67.34849 -1.64001,-13.914938 -1.41118,-18.213958 4.05116,-76.111598 2.34444,-24.84946 4.91789,-74.43182 4.56868,-88.02382 -0.43562,-16.95556 -2.87344,-52.91684 -3.93574,-58.05826 -0.77693,-3.76 -4.44655,-12.57991 -8.96099,-21.53744 -7.17871,-14.24393 -7.78662,-15.12153 -9.96037,-14.37943 -6.27844,2.14342 -9.8754,-0.96175 -27.40024,-23.65391 l -13.44027,-17.40321 -5.64864,0.70315 c -3.10677,0.38675 -7.2341,1.00368 -9.17182,1.37097 -4.52539,0.85775 -17.81477,-0.21828 -29.54306,-2.39209 -11.02878,-2.04419 -14.51984,-4.08969 -20.86886,-12.2277 -4.24308,-5.43865 -4.67486,-6.57056 -5.41388,-14.19327 -0.8532,-8.80018 -2.25224,-11.79461 -11.22027,-24.01525 l -4.398,-5.9931 -1.13144,-23.22332 c -0.81764,-16.78321 -0.76307,-24.89604 0.19676,-29.25529 2.56704,-11.65818 1.37064,-14.67141 -10.25886,-25.83747 -3.95799,-3.80027 -7.84475,-8.29766 -8.63723,-9.9942 -0.79247,-1.69658 -1.45459,-6.96146 -1.47138,-11.69977 -0.0299,-8.04861 0.23435,-9.05077 3.9972,-15.2409 l 4.02773,-6.62582 -1.45287,-15.09921 c -1.16294,-12.08592 -2.02531,-16.26558 -4.32133,-20.9437 -3.18072,-6.4808 -3.50609,-9.76474 -1.55123,-15.65637 1.80619,-5.44354 3.82941,-7.71628 11.34133,-12.74003 l 6.45795,-4.31887 -3.11188,-2.44515 c -1.71157,-1.34484 -5.19478,-4.34128 -7.74048,-6.6588 -2.54571,-2.3175 -5.34639,-4.38935 -6.22382,-4.60413 -1.87284,-0.45843 -3.94603,-4.58256 -5.06016,-10.06607 -0.64672,-3.18297 -0.33224,-4.46455 1.70885,-6.96241 2.46891,-3.02157 6.47677,-11.41559 8.58397,-17.97837 2.22451,-6.92801 2.15168,-18.46931 -0.16208,-25.69911 -1.21256,-3.78863 -2.56717,-8.91109 -3.01025,-11.38326 -0.44308,-2.47217 -2.05884,-7.19174 -3.59048,-10.48794 -1.53168,-3.2962 -3.56215,-8.01578 -4.51214,-10.48795 -0.95002,-2.47214 -2.57173,-5.96877 -3.60384,-7.77026 -2.32632,-4.06044 -1.17157,-6.757 4.61242,-10.77093 4.01144,-2.78384 9.0044,-3.73486 10.65639,-2.02976 0.41538,0.42872 2.79001,1.59885 5.27699,2.60032 2.48692,1.00148 7.4691,4.17726 11.0715,7.05734 6.13198,4.90242 7.05465,5.33324 14.46335,6.75341 4.35246,0.83435 9.5699,2.16721 11.59428,2.96193 7.69294,3.02004 12.15365,8.85155 12.16696,15.90583 l 0.008,3.47078 4.99114,-1.07933 c 2.74514,-0.59362 7.32527,-1.79136 10.17811,-2.66166 3.72319,-1.13577 7.95068,-1.6404 14.98034,-1.7881 5.38637,-0.11323 10.31875,-0.4129 10.96088,-0.66605 0.64212,-0.25315 1.1675,-1.79378 1.1675,-3.42362 0,-2.315 -0.85783,-3.56046 -3.92078,-5.69248 l -3.92082,-2.72913 -14.77644,-0.0991 c -14.58814,-0.0979 -14.88618,-0.13464 -23.38374,-2.88178 -4.73401,-1.53044 -10.19269,-2.78853 -12.13042,-2.79573 -4.10246,-0.0148 -12.24356,-2.2191 -14.433,-3.90711 -0.83308,-0.64231 -3.79831,-3.81401 -6.58937,-7.04824 -2.79109,-3.23427 -6.72403,-7.73459 -8.73992,-10.00073 -2.75786,-3.10024 -3.67049,-5.06145 -3.68652,-7.92203 -0.0125,-2.13124 -1.36084,-6.24595 -3.06986,-9.36422 -2.11469,-3.85844 -3.33104,-8.08692 -3.97053,-13.80302 -0.66497,-5.94381 -1.65538,-9.28447 -3.55352,-11.9862 -1.90084,-2.70558 -2.79503,-5.72743 -3.22019,-10.88231 -0.55345,-6.71104 -0.36723,-7.48919 3.12298,-13.04936 2.96881,-4.72953 3.9253,-7.64892 4.77951,-14.58843 1.22672,-9.96545 3.49952,-15.48556 7.51331,-18.24827 5.67423,-3.90558 17.58652,-4.1129 23.90547,-0.41604 1.64343,0.96147 4.42694,3.74478 6.18556,6.18512 l 3.19755,4.43701 2.18216,-2.12443 c 1.71521,-1.66985 2.36679,-4.30249 3.04511,-12.30296 1.31291,-15.48599 6.48128,-35.65917 10.39823,-40.58657 3.05475,-3.8427 4.11751,-4.3999 8.42074,-4.4155 2.66216,-0.011 3.37172,-0.4648 4.39742,-2.8207 0.67265,-1.5451 1.226,-3.1894 1.22959,-3.654 0.003,-0.4646 0.81121,-1.2707 1.79464,-1.7913 0.98345,-0.5207 1.5318,-1.489 1.21855,-2.1519 -1.60979,-3.4065 0.68326,-32.3454 2.91511,-36.7893 0.72429,-1.4421 1.52674,-9.3002 1.78324,-17.4625 0.34289,-10.91194 0.90853,-15.37404 2.13678,-16.85564 0.91874,-1.1083 2.24301,-3.3636 2.94278,-5.0117 0.80838,-1.9039 3.57539,-4.5403 7.58848,-7.2301 7.67445,-5.1441 10.92853,-9.3066 11.9172,-15.2441 1.36969,-8.226 4.96646,-10.1354 16.27195,-8.6382 8.76944,1.1613 14.42609,0.099 23.7471,-4.4578 8.79142,-4.2983 11.51446,-4.7767 26.92651,-4.73 19.17296,0.058 34.06832,3.3932 39.30787,8.8011 1.31925,1.3617 3.68087,6.1406 5.24799,10.6198 3.66592,10.4782 5.42266,13.5208 10.55394,18.2793 2.30824,2.1405 4.19679,4.2052 4.19679,4.5882 0,0.3829 1.57165,2.8406 3.49255,5.4614 1.92088,2.6208 4.02145,6.2707 4.66795,8.11084 0.64645,1.8402 1.7703,4.3171 2.49742,5.5043 0.72714,1.1873 1.73865,6.634 2.24783,12.104 l 0.92574,9.9454 5.33583,3.1696 c 2.93472,1.7434 5.90009,4.1164 6.58974,5.2735 0.68963,1.1571 1.25387,5.7832 1.25387,10.2803 v 8.1765 l 4.69623,1.5283 c 6.56491,2.1365 10.67616,6.4031 11.72565,12.1689 0.46923,2.578 1.73406,5.9581 2.81071,7.5115 2.2872,3.2998 2.78165,11.9131 0.86208,15.01654 -2.34391,3.7894 -1.52131,6.74598 3.29365,11.83856 2.52898,2.67475 5.44327,6.71768 6.47623,8.98428 1.56796,3.44054 3.70693,5.37514 12.95279,11.71498 6.09109,4.17664 11.92608,8.64412 12.96665,9.9277 1.04053,1.2836 2.94711,5.50855 4.23678,9.38875 1.85641,5.58538 3.03786,7.49697 5.67195,9.17723 2.29509,1.46403 3.77967,3.50295 4.78627,6.57334 0.80255,2.44807 2.44852,6.59348 3.65769,9.21204 3.05717,6.62042 2.789,8.66297 -1.84324,14.03872 l -4.04178,4.69052 4.04451,6.32818 c 5.50849,8.61879 6.17628,13.51035 2.93908,21.52908 -3.10408,7.68898 -6.6116,12.72495 -11.97886,17.19868 -2.22445,1.85411 -5.47645,5.95253 -7.2267,9.10756 -2.65295,4.78232 -3.17582,6.96282 -3.1438,13.10992 0.0201,4.05542 0.56175,9.73329 1.20136,12.61749 0.63963,2.88417 1.62098,8.78363 2.18077,13.10992 0.70088,5.41646 2.09454,9.8439 4.47535,14.21763 3.34151,6.13859 3.67087,6.43253 9.81827,8.76271 3.49842,1.32608 8.73892,2.6363 11.64551,2.9116 12.30449,1.16541 18.14893,2.53126 21.43112,5.00841 4.53368,3.42169 4.79565,4.57386 3.48889,15.3453 -0.94009,7.74934 -1.82955,10.63179 -4.68513,15.18373 -1.93859,3.09019 -4.92359,8.98967 -6.63328,13.10994 -3.55891,8.57678 -10.69088,18.85848 -13.823,19.92775 -1.37473,0.46932 -2.12868,1.5783 -2.13111,3.1346 -0.002,1.3246 -0.84612,5.44237 -1.87571,9.1506 -1.78083,6.41394 -1.74131,9.65219 0.24202,19.85219 0.36056,1.85412 2.41059,6.91081 4.55567,11.23708 9.40355,18.96536 7.59782,30.89577 -6.54074,43.21474 -4.17743,3.6398 -5.65123,5.53468 -5.13572,6.60299 0.3977,0.82407 1.00836,4.05526 1.35707,7.18048 0.6837,6.12755 -1.42578,12.51453 -5.55143,16.80845 l -2.17519,2.26386 3.45344,3.28011 c 2.01286,1.91183 3.45345,4.2701 3.45345,5.65341 0,4.4702 -3.52295,10.07814 -9.05095,14.40747 -5.06747,3.96866 -5.43398,4.54992 -5.52809,8.76699 l -0.10096,4.51651 7.24892,3.39631 c 10.02169,4.69545 11.66459,7.00422 9.8389,13.82684 l -1.4186,5.3014 -11.30817,6.91935 -11.30818,6.91933 -0.0495,13.30742 c -0.047,12.57157 -0.20508,13.4938 -2.86363,16.67853 -3.42367,4.10149 -31.88937,23.43019 -41.05512,27.87719 -3.64128,1.76664 -7.48864,3.71773 -8.54978,4.33578 -2.1382,1.24536 -6.51554,9.62137 -13.89834,26.59443 -2.68829,6.18039 -7.25289,16.11466 -10.14355,22.07607 -5.08944,10.49604 -8.96539,23.30639 -12.70021,41.97531 -2.55148,12.75408 -4.86665,56.99096 -3.09323,59.10473 1.0371,1.23615 1.40141,20.35732 1.4472,75.96575 0.0513,62.234708 0.11553,101.445298 0.27164,165.708758 0.10315,42.424109 -0.50485,68.568602 -1.75939,75.66302 -0.80151,4.532282 -1.46605,17.174002 -1.47677,28.092712 -0.0201,19.35992 0.40417,22.95563 5.11341,43.45005 1.44236,6.27732 1.45553,9.73881 0.037,9.73881 -0.62102,0 -1.69279,-1.33527 -2.38167,-2.96728 z m -79.89477,-557.38858 c -0.52153,-0.61804 -2.62913,-2.13504 -4.68355,-3.37113 l -3.7353,-2.24741 3.23039,4.22782 c 2.50246,3.27515 3.55785,4.03478 4.68355,3.37112 0.8663,-0.51071 1.07019,-1.31054 0.50491,-1.9804 z m -70.3184,-542.97511 c -1.54411,-0.3283 -4.8184,1.1706 -4.8184,2.2059 0,0.371 1.39331,0.092 3.09633,-0.6195 1.70297,-0.7118 2.47791,-1.4257 1.72207,-1.5864 z m 341.23791,889.947678 c -1.98347,-2.90471 -10.40124,-11.60131 -12.08179,-12.48207 -0.78619,-0.41203 -5.22998,-4.61417 -9.8751,-9.33802 -4.64507,-4.72393 -10.2383,-9.98445 -12.42929,-11.69008 -4.74166,-3.69124 -7.17091,-7.57649 -5.431,-8.68634 1.18118,-0.75357 3.97703,1.64825 27.87425,23.94509 l 9.39509,8.7659 0.36407,-3.7457 c 0.33771,-3.4748 2.57192,-6.85873 2.57192,-3.89552 0,0.70045 0.75646,1.27354 1.68099,1.27354 1.29802,0 1.80498,1.57866 2.22517,6.92954 0.29927,3.81124 0.73194,7.7347 0.9614,8.71877 0.61856,2.65278 -3.47515,2.81242 -5.25571,0.20488 z m 10.54005,-34.40659 c -1.21118,-1.25009 0.71992,-19.65201 2.06404,-19.66894 0.70925,-0.009 3.90942,-3.5895 7.11149,-7.95683 3.20211,-4.367258 8.06884,-10.006548 10.815,-12.531828 2.74613,-2.52519 6.92822,-6.71917 9.29346,-9.32002 3.99376,-4.39153 10.48404,-9.11875 12.53076,-9.12684 3.86697,-0.0149 -9.77132,17.46535 -25.25183,32.365938 l -11.44777,11.01894 -0.13889,5.46212 c -0.0765,3.00419 -0.47277,6.44567 -0.88077,7.64774 -0.74703,2.20081 -2.92172,3.32107 -4.09542,2.10972 z m -9.57027,-6.17395 c -1.10703,-1.14259 -3.30202,-34.157288 -2.42003,-36.399018 0.8945,-2.2734 3.97411,-2.34989 4.65958,-0.11578 1.23057,4.0109 2.96765,31.168448 2.16426,33.837038 -0.89412,2.97011 -2.92448,4.20462 -4.40381,2.67772 z m 9.84217,-22.61568 c -3.74525,-1.917418 -5.65488,-17.082918 -2.1511,-17.082918 1.67455,0 3.64753,2.91468 4.47704,6.61392 l 0.77029,3.4351 5.97032,-6.7101 c 3.28368,-3.69048 7.42154,-8.65705 9.19526,-11.0367 3.6364,-4.87869 8.35614,-8.78327 10.61701,-8.78327 5.42263,0 2.81254,3.96144 -14.3139,21.72502 -2.58211,2.67818 -5.95794,6.0917 -7.50183,7.58571 -1.54386,1.49393 -3.33552,3.28183 -3.98144,3.972988 -0.98307,1.05201 -1.48508,1.09763 -3.08165,0.28025 z m 27.8418,-63.262148 c -0.98315,-1.6344 0.32225,-2.39403 1.70946,-0.99479 1.38875,1.40074 1.4183,2.2257 0.0796,2.2257 -0.5768,0 -1.38196,-0.55392 -1.78922,-1.23091 z M 479.6432,-251.04756 c -2.20179,-4.12206 -2.43147,-8.17266 -0.50643,-8.93161 1.38477,-0.5459 8.02956,3.55586 8.02956,4.9566 0,1.28223 -2.14735,0.79948 -4.01673,-0.90309 -3.48265,-3.1717 -3.46297,-0.66201 0.0557,7.07166 0.32791,0.72103 0.0818,1.31098 -0.54672,1.31098 -0.6287,0 -1.98554,-1.57708 -3.01512,-3.50454 z M 310.44102,-366.28071 c -2.73138,-2.4726 -8.14296,-8.03533 -12.0257,-12.36161 -3.88271,-4.32627 -14.18008,-14.77676 -22.883,-23.2233 -17.20978,-16.70281 -30.28991,-30.25147 -30.28991,-31.37484 0,-0.39072 -2.92616,-3.17421 -6.50258,-6.18554 -3.57644,-3.01133 -6.82303,-6.32691 -7.21466,-7.36797 -0.69654,-1.85164 -6.19439,-8.67599 -9.35411,-11.61105 -2.38042,-2.21114 -1.99636,-5.44797 0.75797,-6.38828 2.65393,-0.90602 5.92657,-0.10132 8.45409,2.07895 0.84051,0.72502 2.9815,1.91009 4.75778,2.63347 1.77627,0.72339 3.22958,1.78276 3.22958,2.35414 0,0.5714 4.01313,4.69326 8.91809,9.15969 4.90499,4.46643 13.16421,12.50324 18.35381,17.85957 5.18966,5.35634 14.05537,13.95273 19.7016,19.10306 5.64629,5.15031 12.97706,12.0201 16.29069,15.26616 l 6.0247,5.90195 v -5.01476 c 0,-5.33693 1.35152,-7.91284 4.15165,-7.91284 1.643,0 1.92384,0.31227 2.19004,2.43471 0.0646,0.51502 1.43862,1.11065 3.05339,1.32361 l 2.93596,0.38718 0.0535,12.34817 c 0.045,10.37185 0.45067,13.17618 2.53535,17.52147 2.27971,4.75188 2.44649,7.0977 0.51508,7.24516 -7.94722,0.60679 -8.58395,0.41201 -13.65333,-4.1771 z m -8.29635,-172.98518 c -1.80362,-0.84127 -1.95341,-1.83164 -1.26717,-8.37636 0.42805,-4.08224 1.06038,-12.47895 1.4051,-18.65935 0.79565,-14.26268 0.99051,-14.8809 4.51288,-14.31695 2.39443,0.38333 2.9896,-5.6e-4 4.82306,-3.11082 3.18335,-5.40013 22.02203,-29.3596 27.00652,-34.34745 2.42395,-2.42561 7.64228,-7.10709 11.59627,-10.4033 8.8523,-7.37969 9.36151,-7.88406 21.49767,-21.29523 11.42665,-12.62714 20.05069,-20.23688 22.96428,-20.26331 2.78446,-0.0253 2.58924,1.00607 -0.91177,4.8169 -2.50886,2.73085 -2.69018,3.29724 -1.1744,3.66828 2.79689,0.68464 2.19763,2.63309 -2.79907,9.10091 -2.54651,3.29622 -8.34458,10.90168 -12.88456,16.90105 -6.01173,7.94411 -14.68641,17.10387 -31.92603,33.71124 -13.01928,12.54182 -25.38005,24.15176 -27.46835,25.79987 l -3.79694,2.99655 -0.79642,11.96572 c -0.43803,6.58116 -1.3129,12.29523 -1.94418,12.69792 -0.63131,0.40268 -1.14779,1.8227 -1.14779,3.15556 0,5.07716 -3.59928,7.86646 -7.6891,5.95877 z m -20.48182,-13.15945 c -1.54561,-1.84225 -3.47541,-17.19006 -3.51094,-27.92262 -0.0125,-4.42928 -0.423,-8.05321 -0.90743,-8.05317 -0.48444,5e-5 -0.89601,-5.81516 -0.91457,-12.92263 -0.0299,-12.08706 -0.47815,-14.69092 -6.90536,-40.26631 -3.77936,-15.03896 -6.93499,-28.69202 -7.01252,-30.34012 -0.12745,-2.70701 0.13795,-2.99655 2.74334,-2.99655 2.40606,0 3.14116,0.55898 4.4332,3.37112 1.35695,2.9534 9.34925,27.74683 11.39678,35.3546 0.48243,1.79261 1.53191,2.92643 2.98012,3.21963 3.54007,0.71673 4.48791,4.27478 5.19049,19.48403 0.36167,7.82851 1.22225,18.95322 1.91244,24.72159 0.72021,6.01957 0.91759,15.84482 0.46322,23.06136 -0.73066,11.60493 -0.98102,12.658 -3.24994,13.67178 -3.32624,1.48616 -5.13881,1.38136 -6.61883,-0.38271 z m 21.41816,-47.29914 c -2.09923,-0.85756 -3.82623,-1.9475 -3.83782,-2.42207 -0.0832,-3.40803 -3.61599,-14.90032 -5.02062,-16.33215 -0.98072,-0.99974 -2.05368,-4.67343 -2.48212,-8.49882 -0.41508,-3.70586 -2.09625,-12.22931 -3.73598,-18.94103 -3.55358,-14.54587 -3.46382,-16.18305 0.9049,-16.50501 4.09257,-0.3016 4.66522,0.4658 8.55868,11.46926 1.74947,4.94433 4.79822,13.20358 6.77495,18.35392 1.97676,5.15032 3.91124,11.45822 4.29882,14.01756 l 0.70474,4.65334 11.52518,-12.22761 c 6.33886,-6.72518 15.40821,-17.24699 20.15406,-23.38181 9.24582,-11.95172 18.23145,-19.97434 22.84546,-20.39707 2.81116,-0.25754 8.30505,2.66451 8.30505,4.41724 0,0.47207 -3.08406,4.11073 -6.85353,8.08595 -3.7694,3.97519 -8.90011,9.58741 -11.40156,12.47158 -2.50147,2.8842 -8.32419,8.78366 -12.93947,13.10995 -4.61525,4.32628 -10.31468,10.22574 -12.66541,13.10994 -2.35071,2.88417 -6.65808,7.09749 -9.57184,9.3629 -2.91384,2.26542 -5.89291,5.29944 -6.62017,6.74226 -1.37221,2.72235 -3.11779,4.50531 -4.38955,4.48352 -0.40535,-0.006 -2.45456,-0.71425 -4.55377,-1.57185 z M 180.67429,-813.48281 c -6.16259,-9.17093 -8.14603,-15.9108 -5.93812,-20.17834 1.16538,-2.2525 1.95076,-2.70501 4.69493,-2.70501 5.11178,0 14.1382,6.96625 14.1382,10.91127 0,2.0135 -2.92712,1.09348 -7.88196,-2.47736 l -4.94603,-3.56452 -0.0125,2.622 c -0.006,1.44208 1.24865,5.98829 2.78909,10.10266 1.5404,4.11438 2.55106,7.73833 2.246,8.05323 -1.26726,1.308 -2.97858,0.3788 -5.09043,-2.76393 z"
       id="path5318"
       inkscape:connector-curvature="0"
       sodipodi:nodetypes="ccssccccccscccccccccccscscccccccccccccccscccccccscccsccccsccccsccccccscccccccscccccccccscccccccscccccccccsccccscsccccccssccccccccsccccccccccccccccccccccscccccscccscccscscsscccccccccccccccccccscccccccscccccscccccccccccsccccscssccccccsccccccccccccscccscsccccccccsccscccccsscccccccccccccccccscccccccccccscscccccccccsccsccccccsccccsccccsccccccscscccccccssscsccsccscscccccccccsscccccssscccccscsccsccccccccccssccsccssscsccccccscsscscscccscccssscscsccsccsccccccccccccsccccscccsccssccccscccccsssccscccccscccccscccccccccccccccccccccccscccccccscscccccccccccscsscccccsccsccsccccsccccccsccccccccccccccccsccccscccccccccscccccccsccssccccccccccscccccccccccssccccscccsccsccccsccscccscsccccccscccccsscccscccccccccccscccccsccccscscccscscccccccscccccscccccccscssaccccccssccccccc" />
    <text
       xml:space="preserve"
       style="font-style:normal;font-weight:normal;font-size:533.41094971px;line-height:1.25;font-family:sans-serif;letter-spacing:0px;word-spacing:0px;fill:#fef5e4;fill-opacity:1;stroke:none;stroke-width:13.33527279"
       x="794.18811"
       y="45.604271"
       id="text8421"><tspan
         sodipodi:role="line"
         id="tspan8419"
         x="794.18811"
         y="45.604271"
         style="font-style:normal;font-variant:normal;font-weight:bold;font-stretch:normal;font-size:533.41094971px;font-family:'Accanthis ADF Std No2';-inkscape-font-specification:'Accanthis ADF Std No2, Bold';font-variant-ligatures:normal;font-variant-caps:normal;font-variant-numeric:normal;font-feature-settings:normal;text-align:start;writing-mode:lr-tb;text-anchor:start;fill:#fef5e4;fill-opacity:1;stroke-width:13.33527279">Lucia</tspan></text>
  </g>
</svg>
